<mxfile host="app.diagrams.net" modified="2024-02-24T11:24:40.675Z" agent="Mozilla/5.0 (Windows NT 10.0; Win64; x64) AppleWebKit/537.36 (KHTML, like Gecko) Chrome/121.0.0.0 Safari/537.36" etag="Kng66k7UouBVCdnEBjS8" version="23.1.5" type="github" pages="6">
  <diagram id="GwAtJ4LHHL06P2g6u8ly" name="Overview">
    <mxGraphModel dx="1434" dy="746" grid="1" gridSize="10" guides="1" tooltips="1" connect="1" arrows="1" fold="1" page="1" pageScale="1" pageWidth="850" pageHeight="1100" math="0" shadow="0">
      <root>
        <mxCell id="zFqf8t-zsagXVtalAQAm-0" />
        <mxCell id="zFqf8t-zsagXVtalAQAm-1" parent="zFqf8t-zsagXVtalAQAm-0" />
        <mxCell id="14dJRegRGvBT90uomNl7-10" style="edgeStyle=orthogonalEdgeStyle;rounded=0;orthogonalLoop=1;jettySize=auto;html=1;entryX=0;entryY=0.5;entryDx=0;entryDy=0;entryPerimeter=0;fontSize=14;" parent="zFqf8t-zsagXVtalAQAm-1" source="14dJRegRGvBT90uomNl7-0" target="14dJRegRGvBT90uomNl7-3" edge="1">
          <mxGeometry relative="1" as="geometry" />
        </mxCell>
        <mxCell id="14dJRegRGvBT90uomNl7-0" value="DataÂ " style="shape=module;align=left;spacingLeft=20;align=center;verticalAlign=top;fontSize=14;" parent="zFqf8t-zsagXVtalAQAm-1" vertex="1">
          <mxGeometry x="490" y="215" width="100" height="50" as="geometry" />
        </mxCell>
        <mxCell id="14dJRegRGvBT90uomNl7-7" value="" style="group" parent="zFqf8t-zsagXVtalAQAm-1" vertex="1" connectable="0">
          <mxGeometry x="660" y="130" width="170" height="170" as="geometry" />
        </mxCell>
        <mxCell id="14dJRegRGvBT90uomNl7-3" value="Plugins" style="verticalLabelPosition=bottom;verticalAlign=top;html=1;shape=mxgraph.basic.rect;fillColor2=none;strokeWidth=1;size=20;indent=5;fontSize=14;" parent="14dJRegRGvBT90uomNl7-7" vertex="1">
          <mxGeometry y="-6.538461538461538" width="170" height="170" as="geometry" />
        </mxCell>
        <mxCell id="14dJRegRGvBT90uomNl7-1" value="Xero" style="html=1;fontSize=14;" parent="14dJRegRGvBT90uomNl7-7" vertex="1">
          <mxGeometry x="30" y="10.307785547785546" width="110" height="26.153846153846153" as="geometry" />
        </mxCell>
        <mxCell id="14dJRegRGvBT90uomNl7-5" value="MYOB" style="html=1;fontSize=14;" parent="14dJRegRGvBT90uomNl7-7" vertex="1">
          <mxGeometry x="30" y="51.51673659673659" width="110" height="26.153846153846153" as="geometry" />
        </mxCell>
        <mxCell id="14dJRegRGvBT90uomNl7-6" value="Quickbook" style="html=1;fontSize=14;" parent="14dJRegRGvBT90uomNl7-7" vertex="1">
          <mxGeometry x="30" y="92.72568764568763" width="110" height="26.153846153846153" as="geometry" />
        </mxCell>
        <mxCell id="laTqtw2VtAoY1duZryjC-0" value="csv, json,etc" style="html=1;fontSize=14;" parent="14dJRegRGvBT90uomNl7-7" vertex="1">
          <mxGeometry x="30" y="130.76447552447553" width="110" height="26.153846153846153" as="geometry" />
        </mxCell>
        <mxCell id="14dJRegRGvBT90uomNl7-12" style="edgeStyle=orthogonalEdgeStyle;rounded=0;orthogonalLoop=1;jettySize=auto;html=1;entryX=0;entryY=0.5;entryDx=0;entryDy=0;entryPerimeter=0;fontSize=14;" parent="zFqf8t-zsagXVtalAQAm-1" source="14dJRegRGvBT90uomNl7-11" target="14dJRegRGvBT90uomNl7-0" edge="1">
          <mxGeometry relative="1" as="geometry" />
        </mxCell>
        <mxCell id="14dJRegRGvBT90uomNl7-20" style="edgeStyle=orthogonalEdgeStyle;rounded=0;orthogonalLoop=1;jettySize=auto;html=1;entryX=0.5;entryY=0;entryDx=0;entryDy=0;fontSize=14;" parent="zFqf8t-zsagXVtalAQAm-1" source="14dJRegRGvBT90uomNl7-11" target="14dJRegRGvBT90uomNl7-15" edge="1">
          <mxGeometry relative="1" as="geometry" />
        </mxCell>
        <mxCell id="14dJRegRGvBT90uomNl7-11" value="Engine" style="shape=module;align=left;spacingLeft=20;align=center;verticalAlign=top;fontSize=14;" parent="zFqf8t-zsagXVtalAQAm-1" vertex="1">
          <mxGeometry x="280" y="190" width="140" height="100" as="geometry" />
        </mxCell>
        <mxCell id="14dJRegRGvBT90uomNl7-14" style="edgeStyle=orthogonalEdgeStyle;rounded=0;orthogonalLoop=1;jettySize=auto;html=1;fontSize=14;entryX=0.5;entryY=0;entryDx=0;entryDy=0;" parent="zFqf8t-zsagXVtalAQAm-1" source="14dJRegRGvBT90uomNl7-13" target="14dJRegRGvBT90uomNl7-11" edge="1">
          <mxGeometry relative="1" as="geometry">
            <mxPoint x="300" y="195" as="targetPoint" />
          </mxGeometry>
        </mxCell>
        <mxCell id="14dJRegRGvBT90uomNl7-34" style="edgeStyle=orthogonalEdgeStyle;rounded=0;orthogonalLoop=1;jettySize=auto;html=1;entryX=0.993;entryY=0.522;entryDx=0;entryDy=0;entryPerimeter=0;fontSize=14;" parent="zFqf8t-zsagXVtalAQAm-1" source="14dJRegRGvBT90uomNl7-13" target="14dJRegRGvBT90uomNl7-30" edge="1">
          <mxGeometry relative="1" as="geometry" />
        </mxCell>
        <mxCell id="14dJRegRGvBT90uomNl7-13" value="UI" style="shape=module;align=left;spacingLeft=20;align=center;verticalAlign=middle;fontSize=14;" parent="zFqf8t-zsagXVtalAQAm-1" vertex="1">
          <mxGeometry x="270" y="30" width="160" height="85" as="geometry" />
        </mxCell>
        <mxCell id="V0DAF5sSUGcXo_Jpfzsc-1" style="edgeStyle=orthogonalEdgeStyle;rounded=0;orthogonalLoop=1;jettySize=auto;html=1;entryX=0.5;entryY=1;entryDx=0;entryDy=0;" parent="zFqf8t-zsagXVtalAQAm-1" source="14dJRegRGvBT90uomNl7-15" target="14dJRegRGvBT90uomNl7-0" edge="1">
          <mxGeometry relative="1" as="geometry" />
        </mxCell>
        <mxCell id="14dJRegRGvBT90uomNl7-15" value="Rules" style="shape=module;align=left;spacingLeft=20;align=center;verticalAlign=top;fontSize=14;" parent="zFqf8t-zsagXVtalAQAm-1" vertex="1">
          <mxGeometry x="300" y="400" width="100" height="60" as="geometry" />
        </mxCell>
        <mxCell id="14dJRegRGvBT90uomNl7-23" value="" style="group" parent="zFqf8t-zsagXVtalAQAm-1" vertex="1" connectable="0">
          <mxGeometry x="580" y="485" width="170" height="130" as="geometry" />
        </mxCell>
        <mxCell id="14dJRegRGvBT90uomNl7-24" value="Rules" style="verticalLabelPosition=bottom;verticalAlign=top;html=1;shape=mxgraph.basic.rect;fillColor2=none;strokeWidth=1;size=20;indent=5;fontSize=14;" parent="14dJRegRGvBT90uomNl7-23" vertex="1">
          <mxGeometry y="-5" width="170" height="130" as="geometry" />
        </mxCell>
        <mxCell id="14dJRegRGvBT90uomNl7-25" value="System Defined" style="html=1;fontSize=14;" parent="14dJRegRGvBT90uomNl7-23" vertex="1">
          <mxGeometry x="30" y="20" width="110" height="20" as="geometry" />
        </mxCell>
        <mxCell id="14dJRegRGvBT90uomNl7-26" value="User Defined" style="html=1;fontSize=14;" parent="14dJRegRGvBT90uomNl7-23" vertex="1">
          <mxGeometry x="30" y="50" width="110" height="20" as="geometry" />
        </mxCell>
        <mxCell id="14dJRegRGvBT90uomNl7-29" value="" style="group" parent="zFqf8t-zsagXVtalAQAm-1" vertex="1" connectable="0">
          <mxGeometry x="30" y="30" width="170" height="220" as="geometry" />
        </mxCell>
        <mxCell id="14dJRegRGvBT90uomNl7-30" value="Components" style="verticalLabelPosition=bottom;verticalAlign=top;html=1;shape=mxgraph.basic.rect;fillColor2=none;strokeWidth=1;size=20;indent=5;fontSize=14;" parent="14dJRegRGvBT90uomNl7-29" vertex="1">
          <mxGeometry y="-5" width="170" height="155" as="geometry" />
        </mxCell>
        <mxCell id="14dJRegRGvBT90uomNl7-31" value="Dashboard" style="html=1;fontSize=14;" parent="14dJRegRGvBT90uomNl7-29" vertex="1">
          <mxGeometry x="30" y="20" width="110" height="20" as="geometry" />
        </mxCell>
        <mxCell id="14dJRegRGvBT90uomNl7-32" value="Security" style="html=1;fontSize=14;" parent="14dJRegRGvBT90uomNl7-29" vertex="1">
          <mxGeometry x="30" y="50" width="110" height="20" as="geometry" />
        </mxCell>
        <mxCell id="14dJRegRGvBT90uomNl7-33" value="Data" style="html=1;fontSize=14;" parent="14dJRegRGvBT90uomNl7-29" vertex="1">
          <mxGeometry x="30" y="80" width="110" height="20" as="geometry" />
        </mxCell>
        <mxCell id="laTqtw2VtAoY1duZryjC-1" value="Rules" style="html=1;fontSize=14;" parent="14dJRegRGvBT90uomNl7-29" vertex="1">
          <mxGeometry x="30" y="110" width="110" height="20" as="geometry" />
        </mxCell>
        <mxCell id="V0DAF5sSUGcXo_Jpfzsc-0" style="edgeStyle=orthogonalEdgeStyle;rounded=0;orthogonalLoop=1;jettySize=auto;html=1;entryX=0.471;entryY=0;entryDx=0;entryDy=0;entryPerimeter=0;" parent="zFqf8t-zsagXVtalAQAm-1" source="14dJRegRGvBT90uomNl7-15" target="14dJRegRGvBT90uomNl7-24" edge="1">
          <mxGeometry relative="1" as="geometry" />
        </mxCell>
      </root>
    </mxGraphModel>
  </diagram>
  <diagram id="9-JmJnxbbe8qQcawbSa4" name="UI">
    <mxGraphModel dx="1434" dy="746" grid="1" gridSize="10" guides="1" tooltips="1" connect="1" arrows="1" fold="1" page="1" pageScale="1" pageWidth="850" pageHeight="1100" math="0" shadow="0">
      <root>
        <mxCell id="XZ4uL8xa71SUu3CpaHxx-0" />
        <mxCell id="XZ4uL8xa71SUu3CpaHxx-1" parent="XZ4uL8xa71SUu3CpaHxx-0" />
        <mxCell id="XZ4uL8xa71SUu3CpaHxx-2" value="" style="shape=folder;fontStyle=1;spacingTop=10;tabWidth=40;tabHeight=14;tabPosition=left;html=1;fontSize=14;" parent="XZ4uL8xa71SUu3CpaHxx-1" vertex="1">
          <mxGeometry x="20" y="40" width="510" height="390" as="geometry" />
        </mxCell>
        <mxCell id="XZ4uL8xa71SUu3CpaHxx-3" style="edgeStyle=orthogonalEdgeStyle;rounded=0;orthogonalLoop=1;jettySize=auto;html=1;entryX=0;entryY=0.5;entryDx=0;entryDy=0;fontSize=14;" parent="XZ4uL8xa71SUu3CpaHxx-1" source="XZ4uL8xa71SUu3CpaHxx-6" target="XZ4uL8xa71SUu3CpaHxx-10" edge="1">
          <mxGeometry relative="1" as="geometry" />
        </mxCell>
        <mxCell id="XZ4uL8xa71SUu3CpaHxx-4" style="edgeStyle=orthogonalEdgeStyle;rounded=0;orthogonalLoop=1;jettySize=auto;html=1;entryX=0;entryY=0.5;entryDx=0;entryDy=0;fontSize=14;" parent="XZ4uL8xa71SUu3CpaHxx-1" source="XZ4uL8xa71SUu3CpaHxx-6" target="XZ4uL8xa71SUu3CpaHxx-11" edge="1">
          <mxGeometry relative="1" as="geometry" />
        </mxCell>
        <mxCell id="XZ4uL8xa71SUu3CpaHxx-5" style="edgeStyle=orthogonalEdgeStyle;rounded=0;orthogonalLoop=1;jettySize=auto;html=1;entryX=0;entryY=0.5;entryDx=0;entryDy=0;fontSize=14;" parent="XZ4uL8xa71SUu3CpaHxx-1" source="XZ4uL8xa71SUu3CpaHxx-6" target="XZ4uL8xa71SUu3CpaHxx-13" edge="1">
          <mxGeometry relative="1" as="geometry" />
        </mxCell>
        <mxCell id="9jmtr6UL0Yml4hldvTC4-1" style="edgeStyle=orthogonalEdgeStyle;rounded=0;orthogonalLoop=1;jettySize=auto;html=1;entryX=0;entryY=0.5;entryDx=0;entryDy=0;fontSize=14;" parent="XZ4uL8xa71SUu3CpaHxx-1" source="XZ4uL8xa71SUu3CpaHxx-6" target="9jmtr6UL0Yml4hldvTC4-0" edge="1">
          <mxGeometry relative="1" as="geometry" />
        </mxCell>
        <mxCell id="XZ4uL8xa71SUu3CpaHxx-6" value="UI" style="html=1;fontSize=14;" parent="XZ4uL8xa71SUu3CpaHxx-1" vertex="1">
          <mxGeometry x="45" y="190" width="110" height="50" as="geometry" />
        </mxCell>
        <mxCell id="XZ4uL8xa71SUu3CpaHxx-10" value="Security Login" style="html=1;fontSize=14;" parent="XZ4uL8xa71SUu3CpaHxx-1" vertex="1">
          <mxGeometry x="290" y="60" width="110" height="50" as="geometry" />
        </mxCell>
        <mxCell id="XZ4uL8xa71SUu3CpaHxx-11" value="Data import" style="html=1;fontSize=14;" parent="XZ4uL8xa71SUu3CpaHxx-1" vertex="1">
          <mxGeometry x="290" y="130" width="110" height="50" as="geometry" />
        </mxCell>
        <mxCell id="XZ4uL8xa71SUu3CpaHxx-13" value="Dashboard" style="html=1;fontSize=14;" parent="XZ4uL8xa71SUu3CpaHxx-1" vertex="1">
          <mxGeometry x="290" y="210" width="110" height="50" as="geometry" />
        </mxCell>
        <mxCell id="XZ4uL8xa71SUu3CpaHxx-14" value="* React&lt;br&gt;* Net core&lt;br&gt;&amp;nbsp;" style="text;html=1;align=left;verticalAlign=middle;resizable=0;points=[];autosize=1;strokeColor=none;fontSize=14;" parent="XZ4uL8xa71SUu3CpaHxx-1" vertex="1">
          <mxGeometry y="440" width="80" height="60" as="geometry" />
        </mxCell>
        <mxCell id="9jmtr6UL0Yml4hldvTC4-0" value="Rules" style="html=1;fontSize=14;" parent="XZ4uL8xa71SUu3CpaHxx-1" vertex="1">
          <mxGeometry x="290" y="280" width="110" height="50" as="geometry" />
        </mxCell>
      </root>
    </mxGraphModel>
  </diagram>
  <diagram id="oMAa_tG2MVwihIOUaJ5B" name="Rules">
    <mxGraphModel dx="1434" dy="746" grid="1" gridSize="10" guides="1" tooltips="1" connect="1" arrows="1" fold="1" page="1" pageScale="1" pageWidth="850" pageHeight="1100" math="0" shadow="0">
      <root>
        <mxCell id="3mK80k_DLqF5mh7BlaB6-0" />
        <mxCell id="3mK80k_DLqF5mh7BlaB6-1" parent="3mK80k_DLqF5mh7BlaB6-0" />
        <mxCell id="QBcepTSRIS6bFMEODhWb-1" value="Rules" style="shape=module;align=left;spacingLeft=20;align=center;verticalAlign=top;fontSize=14;" parent="3mK80k_DLqF5mh7BlaB6-1" vertex="1">
          <mxGeometry x="5" y="150" width="100" height="60" as="geometry" />
        </mxCell>
        <mxCell id="QBcepTSRIS6bFMEODhWb-2" value="" style="group" parent="3mK80k_DLqF5mh7BlaB6-1" vertex="1" connectable="0">
          <mxGeometry x="390" y="85" width="170" height="100" as="geometry" />
        </mxCell>
        <mxCell id="QBcepTSRIS6bFMEODhWb-3" value="Rules" style="verticalLabelPosition=bottom;verticalAlign=top;html=1;shape=mxgraph.basic.rect;fillColor2=none;strokeWidth=1;size=20;indent=5;fontSize=14;" parent="QBcepTSRIS6bFMEODhWb-2" vertex="1">
          <mxGeometry y="-3.8461538461538463" width="170" height="100" as="geometry" />
        </mxCell>
        <mxCell id="QBcepTSRIS6bFMEODhWb-4" value="System Defined" style="html=1;fontSize=14;" parent="QBcepTSRIS6bFMEODhWb-2" vertex="1">
          <mxGeometry x="30" y="15.384615384615385" width="110" height="15.384615384615385" as="geometry" />
        </mxCell>
        <mxCell id="QBcepTSRIS6bFMEODhWb-5" value="User Defined" style="html=1;fontSize=14;" parent="QBcepTSRIS6bFMEODhWb-2" vertex="1">
          <mxGeometry x="30" y="38.46153846153847" width="110" height="15.384615384615385" as="geometry" />
        </mxCell>
        <mxCell id="QBcepTSRIS6bFMEODhWb-6" style="edgeStyle=orthogonalEdgeStyle;rounded=0;orthogonalLoop=1;jettySize=auto;html=1;entryX=-0.012;entryY=0.738;entryDx=0;entryDy=0;entryPerimeter=0;" parent="3mK80k_DLqF5mh7BlaB6-1" source="QBcepTSRIS6bFMEODhWb-1" target="QBcepTSRIS6bFMEODhWb-3" edge="1">
          <mxGeometry relative="1" as="geometry" />
        </mxCell>
        <mxCell id="zHd5U1f_hRwHoCr-Y5-1-1" value="At least 50 rules" style="text;html=1;align=center;verticalAlign=middle;resizable=0;points=[];autosize=1;strokeColor=none;fillColor=none;" parent="3mK80k_DLqF5mh7BlaB6-1" vertex="1">
          <mxGeometry x="675" y="98" width="110" height="30" as="geometry" />
        </mxCell>
        <mxCell id="zHd5U1f_hRwHoCr-Y5-1-3" value="&lt;h1&gt;Trending&lt;/h1&gt;&lt;p&gt;Example: Avg-Value-last-12-months&lt;/p&gt;" style="text;html=1;strokeColor=none;fillColor=none;spacing=5;spacingTop=-20;whiteSpace=wrap;overflow=hidden;rounded=0;" parent="3mK80k_DLqF5mh7BlaB6-1" vertex="1">
          <mxGeometry x="30" y="360" width="190" height="310" as="geometry" />
        </mxCell>
        <mxCell id="zHd5U1f_hRwHoCr-Y5-1-4" value="User Defined" style="html=1;fontSize=14;" parent="3mK80k_DLqF5mh7BlaB6-1" vertex="1">
          <mxGeometry x="80" y="310.0015384615384" width="110" height="15.384615384615385" as="geometry" />
        </mxCell>
        <mxCell id="zHd5U1f_hRwHoCr-Y5-1-7" value="&lt;h1&gt;Seasonality&lt;/h1&gt;&lt;div&gt;Example: Month-Contribution-December, analyzing&amp;nbsp; December month-contribution-for-last-12-months&lt;br&gt;&lt;/div&gt;" style="text;html=1;strokeColor=none;fillColor=none;spacing=5;spacingTop=-20;whiteSpace=wrap;overflow=hidden;rounded=0;" parent="3mK80k_DLqF5mh7BlaB6-1" vertex="1">
          <mxGeometry x="220" y="360" width="190" height="310" as="geometry" />
        </mxCell>
        <mxCell id="zHd5U1f_hRwHoCr-Y5-1-8" value="&lt;h1&gt;Exception&lt;/h1&gt;&lt;div&gt;Example:&amp;nbsp; Analyzing-transactions-To-find above avg values&lt;br&gt;&lt;/div&gt;" style="text;html=1;strokeColor=none;fillColor=none;spacing=5;spacingTop=-20;whiteSpace=wrap;overflow=hidden;rounded=0;" parent="3mK80k_DLqF5mh7BlaB6-1" vertex="1">
          <mxGeometry x="425" y="360" width="190" height="310" as="geometry" />
        </mxCell>
        <mxCell id="zHd5U1f_hRwHoCr-Y5-1-9" value="&lt;h1&gt;Normalization&lt;/h1&gt;&lt;div&gt;Example:&amp;nbsp; After identify past events evaluate revenue-cost-impact and adjust future forecast.&lt;br&gt;&lt;/div&gt;" style="text;html=1;strokeColor=none;fillColor=none;spacing=5;spacingTop=-20;whiteSpace=wrap;overflow=hidden;rounded=0;" parent="3mK80k_DLqF5mh7BlaB6-1" vertex="1">
          <mxGeometry x="635" y="360" width="190" height="310" as="geometry" />
        </mxCell>
        <mxCell id="zHd5U1f_hRwHoCr-Y5-1-10" value="&lt;h1&gt;Other&lt;/h1&gt;&lt;div&gt;Example:&amp;nbsp;&amp;nbsp;&lt;br&gt;&lt;/div&gt;" style="text;html=1;strokeColor=none;fillColor=none;spacing=5;spacingTop=-20;whiteSpace=wrap;overflow=hidden;rounded=0;" parent="3mK80k_DLqF5mh7BlaB6-1" vertex="1">
          <mxGeometry x="840" y="360" width="190" height="310" as="geometry" />
        </mxCell>
        <mxCell id="zHd5U1f_hRwHoCr-Y5-1-11" value="&lt;h1&gt;&lt;span style=&quot;background-color: initial;&quot;&gt;Notes&lt;/span&gt;&lt;br&gt;&lt;/h1&gt;&lt;div&gt;&lt;span style=&quot;background-color: initial;&quot;&gt;* Rules results can be percentage, value (decimal, or any)&amp;nbsp;&lt;/span&gt;&lt;/div&gt;&lt;div&gt;&lt;span style=&quot;background-color: initial;&quot;&gt;*&amp;nbsp;&lt;/span&gt;&lt;/div&gt;" style="text;html=1;strokeColor=none;fillColor=none;spacing=5;spacingTop=-20;whiteSpace=wrap;overflow=hidden;rounded=0;" parent="3mK80k_DLqF5mh7BlaB6-1" vertex="1">
          <mxGeometry x="50" y="560" width="840" height="140" as="geometry" />
        </mxCell>
        <mxCell id="zHd5U1f_hRwHoCr-Y5-1-12" value="AVG" style="rounded=0;whiteSpace=wrap;html=1;" parent="3mK80k_DLqF5mh7BlaB6-1" vertex="1">
          <mxGeometry x="65" y="790" width="155" height="30" as="geometry" />
        </mxCell>
        <mxCell id="zHd5U1f_hRwHoCr-Y5-1-13" value="How many months back" style="rounded=0;whiteSpace=wrap;html=1;" parent="3mK80k_DLqF5mh7BlaB6-1" vertex="1">
          <mxGeometry x="237.5" y="790" width="155" height="30" as="geometry" />
        </mxCell>
        <mxCell id="zHd5U1f_hRwHoCr-Y5-1-14" value="" style="rounded=0;whiteSpace=wrap;html=1;" parent="3mK80k_DLqF5mh7BlaB6-1" vertex="1">
          <mxGeometry x="65" y="860" width="155" height="30" as="geometry" />
        </mxCell>
        <mxCell id="zHd5U1f_hRwHoCr-Y5-1-15" value="Minimum 12 months" style="rounded=0;whiteSpace=wrap;html=1;" parent="3mK80k_DLqF5mh7BlaB6-1" vertex="1">
          <mxGeometry x="237.5" y="860" width="155" height="30" as="geometry" />
        </mxCell>
        <mxCell id="zHd5U1f_hRwHoCr-Y5-1-16" value="Source: Transactions&amp;nbsp;" style="rounded=0;whiteSpace=wrap;html=1;" parent="3mK80k_DLqF5mh7BlaB6-1" vertex="1">
          <mxGeometry x="65" y="920" width="155" height="30" as="geometry" />
        </mxCell>
        <mxCell id="zHd5U1f_hRwHoCr-Y5-1-17" value="AVG" style="rounded=0;whiteSpace=wrap;html=1;" parent="3mK80k_DLqF5mh7BlaB6-1" vertex="1">
          <mxGeometry x="65" y="970" width="155" height="30" as="geometry" />
        </mxCell>
        <mxCell id="zHd5U1f_hRwHoCr-Y5-1-18" value="Trending" style="text;html=1;align=center;verticalAlign=middle;resizable=0;points=[];autosize=1;strokeColor=none;fillColor=none;" parent="3mK80k_DLqF5mh7BlaB6-1" vertex="1">
          <mxGeometry x="25" y="748" width="70" height="30" as="geometry" />
        </mxCell>
        <mxCell id="zHd5U1f_hRwHoCr-Y5-1-19" value="Seasonality" style="text;html=1;align=center;verticalAlign=middle;resizable=0;points=[];autosize=1;strokeColor=none;fillColor=none;" parent="3mK80k_DLqF5mh7BlaB6-1" vertex="1">
          <mxGeometry x="25" y="830" width="90" height="30" as="geometry" />
        </mxCell>
        <mxCell id="zHd5U1f_hRwHoCr-Y5-1-20" value="Exception" style="text;html=1;align=center;verticalAlign=middle;resizable=0;points=[];autosize=1;strokeColor=none;fillColor=none;" parent="3mK80k_DLqF5mh7BlaB6-1" vertex="1">
          <mxGeometry x="25" y="890" width="80" height="30" as="geometry" />
        </mxCell>
        <mxCell id="zHd5U1f_hRwHoCr-Y5-1-21" value="AVG" style="rounded=0;whiteSpace=wrap;html=1;" parent="3mK80k_DLqF5mh7BlaB6-1" vertex="1">
          <mxGeometry x="237.5" y="970" width="155" height="30" as="geometry" />
        </mxCell>
        <mxCell id="zHd5U1f_hRwHoCr-Y5-1-22" value="Rules Simulator" style="shape=module;align=left;spacingLeft=20;align=center;verticalAlign=top;fontSize=14;" parent="3mK80k_DLqF5mh7BlaB6-1" vertex="1">
          <mxGeometry x="150" y="10" width="142.5" height="60" as="geometry" />
        </mxCell>
        <mxCell id="zHd5U1f_hRwHoCr-Y5-1-23" style="edgeStyle=orthogonalEdgeStyle;rounded=0;orthogonalLoop=1;jettySize=auto;html=1;entryX=0.61;entryY=-0.017;entryDx=0;entryDy=0;entryPerimeter=0;" parent="3mK80k_DLqF5mh7BlaB6-1" source="zHd5U1f_hRwHoCr-Y5-1-22" target="QBcepTSRIS6bFMEODhWb-1" edge="1">
          <mxGeometry relative="1" as="geometry" />
        </mxCell>
        <mxCell id="zHd5U1f_hRwHoCr-Y5-1-24" value="AVG" style="rounded=0;whiteSpace=wrap;html=1;" parent="3mK80k_DLqF5mh7BlaB6-1" vertex="1">
          <mxGeometry x="65" y="1112" width="155" height="30" as="geometry" />
        </mxCell>
        <mxCell id="zHd5U1f_hRwHoCr-Y5-1-25" value="How many months back" style="rounded=0;whiteSpace=wrap;html=1;" parent="3mK80k_DLqF5mh7BlaB6-1" vertex="1">
          <mxGeometry x="237.5" y="1112" width="155" height="30" as="geometry" />
        </mxCell>
        <mxCell id="zHd5U1f_hRwHoCr-Y5-1-26" value="" style="rounded=0;whiteSpace=wrap;html=1;" parent="3mK80k_DLqF5mh7BlaB6-1" vertex="1">
          <mxGeometry x="65" y="1182" width="155" height="30" as="geometry" />
        </mxCell>
        <mxCell id="zHd5U1f_hRwHoCr-Y5-1-27" value="Minimum 12 months" style="rounded=0;whiteSpace=wrap;html=1;" parent="3mK80k_DLqF5mh7BlaB6-1" vertex="1">
          <mxGeometry x="237.5" y="1182" width="155" height="30" as="geometry" />
        </mxCell>
        <mxCell id="zHd5U1f_hRwHoCr-Y5-1-28" value="Source: Transactions&amp;nbsp;" style="rounded=0;whiteSpace=wrap;html=1;" parent="3mK80k_DLqF5mh7BlaB6-1" vertex="1">
          <mxGeometry x="65" y="1242" width="155" height="30" as="geometry" />
        </mxCell>
        <mxCell id="zHd5U1f_hRwHoCr-Y5-1-29" value="AVG" style="rounded=0;whiteSpace=wrap;html=1;" parent="3mK80k_DLqF5mh7BlaB6-1" vertex="1">
          <mxGeometry x="65" y="1292" width="155" height="30" as="geometry" />
        </mxCell>
        <mxCell id="zHd5U1f_hRwHoCr-Y5-1-30" value="Trending" style="text;html=1;align=center;verticalAlign=middle;resizable=0;points=[];autosize=1;strokeColor=none;fillColor=none;" parent="3mK80k_DLqF5mh7BlaB6-1" vertex="1">
          <mxGeometry x="25" y="1070" width="70" height="30" as="geometry" />
        </mxCell>
        <mxCell id="zHd5U1f_hRwHoCr-Y5-1-31" value="Seasonality" style="text;html=1;align=center;verticalAlign=middle;resizable=0;points=[];autosize=1;strokeColor=none;fillColor=none;" parent="3mK80k_DLqF5mh7BlaB6-1" vertex="1">
          <mxGeometry x="25" y="1152" width="90" height="30" as="geometry" />
        </mxCell>
        <mxCell id="zHd5U1f_hRwHoCr-Y5-1-32" value="Exception" style="text;html=1;align=center;verticalAlign=middle;resizable=0;points=[];autosize=1;strokeColor=none;fillColor=none;" parent="3mK80k_DLqF5mh7BlaB6-1" vertex="1">
          <mxGeometry x="25" y="1212" width="80" height="30" as="geometry" />
        </mxCell>
        <mxCell id="zHd5U1f_hRwHoCr-Y5-1-33" value="AVG" style="rounded=0;whiteSpace=wrap;html=1;" parent="3mK80k_DLqF5mh7BlaB6-1" vertex="1">
          <mxGeometry x="237.5" y="1292" width="155" height="30" as="geometry" />
        </mxCell>
        <mxCell id="zHd5U1f_hRwHoCr-Y5-1-34" value="Result" style="rounded=0;whiteSpace=wrap;html=1;" parent="3mK80k_DLqF5mh7BlaB6-1" vertex="1">
          <mxGeometry x="675" y="790" width="155" height="30" as="geometry" />
        </mxCell>
        <mxCell id="zHd5U1f_hRwHoCr-Y5-1-35" value="Result" style="rounded=0;whiteSpace=wrap;html=1;" parent="3mK80k_DLqF5mh7BlaB6-1" vertex="1">
          <mxGeometry x="675" y="860" width="155" height="30" as="geometry" />
        </mxCell>
        <mxCell id="zHd5U1f_hRwHoCr-Y5-1-36" value="Result" style="rounded=0;whiteSpace=wrap;html=1;" parent="3mK80k_DLqF5mh7BlaB6-1" vertex="1">
          <mxGeometry x="675" y="970" width="155" height="30" as="geometry" />
        </mxCell>
      </root>
    </mxGraphModel>
  </diagram>
  <diagram id="3__u4p3Ro-LAbvObJv9X" name="Engine">
    <mxGraphModel dx="1434" dy="746" grid="1" gridSize="10" guides="1" tooltips="1" connect="1" arrows="1" fold="1" page="1" pageScale="1" pageWidth="850" pageHeight="1100" math="0" shadow="0">
      <root>
        <mxCell id="_9Y1NnOvJlvhEg8LHsiX-0" />
        <mxCell id="_9Y1NnOvJlvhEg8LHsiX-1" parent="_9Y1NnOvJlvhEg8LHsiX-0" />
        <mxCell id="SVUs1310mcv4oXOJ9frh-0" value="" style="shape=folder;fontStyle=1;spacingTop=10;tabWidth=40;tabHeight=14;tabPosition=left;html=1;fontSize=14;" parent="_9Y1NnOvJlvhEg8LHsiX-1" vertex="1">
          <mxGeometry x="20" y="40" width="510" height="390" as="geometry" />
        </mxCell>
        <mxCell id="SVUs1310mcv4oXOJ9frh-9" style="edgeStyle=orthogonalEdgeStyle;rounded=0;orthogonalLoop=1;jettySize=auto;html=1;entryX=0;entryY=0.5;entryDx=0;entryDy=0;fontSize=14;" parent="_9Y1NnOvJlvhEg8LHsiX-1" source="SVUs1310mcv4oXOJ9frh-2" target="SVUs1310mcv4oXOJ9frh-8" edge="1">
          <mxGeometry relative="1" as="geometry" />
        </mxCell>
        <mxCell id="SVUs1310mcv4oXOJ9frh-12" style="edgeStyle=orthogonalEdgeStyle;rounded=0;orthogonalLoop=1;jettySize=auto;html=1;entryX=0;entryY=0.5;entryDx=0;entryDy=0;fontSize=14;" parent="_9Y1NnOvJlvhEg8LHsiX-1" source="SVUs1310mcv4oXOJ9frh-2" target="SVUs1310mcv4oXOJ9frh-10" edge="1">
          <mxGeometry relative="1" as="geometry" />
        </mxCell>
        <mxCell id="SVUs1310mcv4oXOJ9frh-16" style="edgeStyle=orthogonalEdgeStyle;rounded=0;orthogonalLoop=1;jettySize=auto;html=1;entryX=0;entryY=0.5;entryDx=0;entryDy=0;fontSize=14;" parent="_9Y1NnOvJlvhEg8LHsiX-1" source="SVUs1310mcv4oXOJ9frh-2" target="SVUs1310mcv4oXOJ9frh-15" edge="1">
          <mxGeometry relative="1" as="geometry" />
        </mxCell>
        <mxCell id="P0dexwmCMW3Ha514v7Hc-0" style="edgeStyle=orthogonalEdgeStyle;rounded=0;orthogonalLoop=1;jettySize=auto;html=1;entryX=0.5;entryY=0;entryDx=0;entryDy=0;fontSize=14;" parent="_9Y1NnOvJlvhEg8LHsiX-1" source="SVUs1310mcv4oXOJ9frh-2" target="SVUs1310mcv4oXOJ9frh-13" edge="1">
          <mxGeometry relative="1" as="geometry" />
        </mxCell>
        <mxCell id="SVUs1310mcv4oXOJ9frh-2" value="Api service" style="html=1;fontSize=14;" parent="_9Y1NnOvJlvhEg8LHsiX-1" vertex="1">
          <mxGeometry x="70" y="190" width="110" height="50" as="geometry" />
        </mxCell>
        <mxCell id="SVUs1310mcv4oXOJ9frh-3" value="Logs" style="html=1;fontSize=14;" parent="_9Y1NnOvJlvhEg8LHsiX-1" vertex="1">
          <mxGeometry x="690" y="90" width="110" height="50" as="geometry" />
        </mxCell>
        <mxCell id="SVUs1310mcv4oXOJ9frh-4" value="Security" style="html=1;fontSize=14;" parent="_9Y1NnOvJlvhEg8LHsiX-1" vertex="1">
          <mxGeometry x="690" y="160" width="110" height="50" as="geometry" />
        </mxCell>
        <mxCell id="SVUs1310mcv4oXOJ9frh-5" value="Trace" style="html=1;fontSize=14;" parent="_9Y1NnOvJlvhEg8LHsiX-1" vertex="1">
          <mxGeometry x="690" y="230" width="110" height="50" as="geometry" />
        </mxCell>
        <mxCell id="SVUs1310mcv4oXOJ9frh-8" value="Security Login" style="html=1;fontSize=14;" parent="_9Y1NnOvJlvhEg8LHsiX-1" vertex="1">
          <mxGeometry x="290" y="60" width="110" height="50" as="geometry" />
        </mxCell>
        <mxCell id="SVUs1310mcv4oXOJ9frh-10" value="Data import" style="html=1;fontSize=14;" parent="_9Y1NnOvJlvhEg8LHsiX-1" vertex="1">
          <mxGeometry x="290" y="130" width="110" height="50" as="geometry" />
        </mxCell>
        <mxCell id="SVUs1310mcv4oXOJ9frh-11" value="* Clean architecture&lt;br&gt;*&amp;nbsp;" style="text;html=1;align=left;verticalAlign=middle;resizable=0;points=[];autosize=1;strokeColor=none;fontSize=14;" parent="_9Y1NnOvJlvhEg8LHsiX-1" vertex="1">
          <mxGeometry x="15" y="500" width="140" height="40" as="geometry" />
        </mxCell>
        <mxCell id="SVUs1310mcv4oXOJ9frh-13" value="Long Calculate Service" style="html=1;fontSize=14;" parent="_9Y1NnOvJlvhEg8LHsiX-1" vertex="1">
          <mxGeometry x="70" y="340" width="160" height="50" as="geometry" />
        </mxCell>
        <mxCell id="SVUs1310mcv4oXOJ9frh-15" value="Data Process" style="html=1;fontSize=14;" parent="_9Y1NnOvJlvhEg8LHsiX-1" vertex="1">
          <mxGeometry x="290" y="200" width="110" height="50" as="geometry" />
        </mxCell>
      </root>
    </mxGraphModel>
  </diagram>
  <diagram id="qi5fZtPef_-18b1zZPIf" name="Data Components">
    <mxGraphModel dx="1434" dy="746" grid="1" gridSize="10" guides="1" tooltips="1" connect="1" arrows="1" fold="1" page="1" pageScale="1" pageWidth="850" pageHeight="1100" math="0" shadow="0">
      <root>
        <mxCell id="0" />
        <mxCell id="1" parent="0" />
        <mxCell id="wfGYhSurw_hQZ2FZEMr1-1" value="File" style="outlineConnect=0;dashed=0;verticalLabelPosition=bottom;verticalAlign=top;align=center;html=1;shape=mxgraph.aws3.s3;fillColor=#E05243;gradientColor=none;" parent="1" vertex="1">
          <mxGeometry x="738" y="40" width="76.5" height="93" as="geometry" />
        </mxCell>
        <mxCell id="wfGYhSurw_hQZ2FZEMr1-3" value="RDS" style="points=[[0,0,0],[0.25,0,0],[0.5,0,0],[0.75,0,0],[1,0,0],[0,1,0],[0.25,1,0],[0.5,1,0],[0.75,1,0],[1,1,0],[0,0.25,0],[0,0.5,0],[0,0.75,0],[1,0.25,0],[1,0.5,0],[1,0.75,0]];outlineConnect=0;fontColor=#232F3E;gradientColor=#4D72F3;gradientDirection=north;fillColor=#3334B9;strokeColor=#ffffff;dashed=0;verticalLabelPosition=bottom;verticalAlign=top;align=center;html=1;fontSize=12;fontStyle=0;aspect=fixed;shape=mxgraph.aws4.resourceIcon;resIcon=mxgraph.aws4.database;" parent="1" vertex="1">
          <mxGeometry x="660" y="550" width="78" height="78" as="geometry" />
        </mxCell>
        <mxCell id="viR3GrjmCNi1Ah79xZNa-1" style="edgeStyle=orthogonalEdgeStyle;rounded=0;orthogonalLoop=1;jettySize=auto;html=1;fontSize=14;exitX=1;exitY=0.5;exitDx=0;exitDy=0;" parent="1" source="viR3GrjmCNi1Ah79xZNa-4" target="wfGYhSurw_hQZ2FZEMr1-1" edge="1">
          <mxGeometry relative="1" as="geometry">
            <Array as="points">
              <mxPoint x="776" y="145" />
            </Array>
          </mxGeometry>
        </mxCell>
        <mxCell id="viR3GrjmCNi1Ah79xZNa-2" style="edgeStyle=orthogonalEdgeStyle;rounded=0;orthogonalLoop=1;jettySize=auto;html=1;entryX=0.5;entryY=0;entryDx=0;entryDy=0;entryPerimeter=0;fontSize=14;exitX=1;exitY=0.5;exitDx=0;exitDy=0;" parent="1" source="viR3GrjmCNi1Ah79xZNa-6" target="wfGYhSurw_hQZ2FZEMr1-3" edge="1">
          <mxGeometry relative="1" as="geometry" />
        </mxCell>
        <mxCell id="viR3GrjmCNi1Ah79xZNa-3" value="Sent data" style="edgeLabel;html=1;align=center;verticalAlign=middle;resizable=0;points=[];fontSize=14;" parent="viR3GrjmCNi1Ah79xZNa-2" vertex="1" connectable="0">
          <mxGeometry x="-0.338" y="-3" relative="1" as="geometry">
            <mxPoint as="offset" />
          </mxGeometry>
        </mxCell>
        <mxCell id="viR3GrjmCNi1Ah79xZNa-5" style="edgeStyle=orthogonalEdgeStyle;rounded=0;orthogonalLoop=1;jettySize=auto;html=1;entryX=0.08;entryY=0.5;entryDx=0;entryDy=0;fontSize=14;entryPerimeter=0;" parent="1" source="d-2P2V6J5KiPjy37Av1H-1" target="viR3GrjmCNi1Ah79xZNa-4" edge="1">
          <mxGeometry relative="1" as="geometry">
            <Array as="points">
              <mxPoint x="125" y="140" />
              <mxPoint x="458" y="140" />
            </Array>
          </mxGeometry>
        </mxCell>
        <mxCell id="viR3GrjmCNi1Ah79xZNa-7" style="edgeStyle=orthogonalEdgeStyle;rounded=0;orthogonalLoop=1;jettySize=auto;html=1;entryX=0.128;entryY=0.552;entryDx=0;entryDy=0;entryPerimeter=0;fontSize=14;" parent="1" source="d-2P2V6J5KiPjy37Av1H-1" target="viR3GrjmCNi1Ah79xZNa-6" edge="1">
          <mxGeometry relative="1" as="geometry">
            <Array as="points">
              <mxPoint x="513" y="360" />
              <mxPoint x="513" y="382" />
            </Array>
          </mxGeometry>
        </mxCell>
        <mxCell id="d-2P2V6J5KiPjy37Av1H-1" value="API Data" style="shape=module;align=left;spacingLeft=20;align=center;verticalAlign=top;fontSize=14;" parent="1" vertex="1">
          <mxGeometry x="40" y="330" width="140" height="60" as="geometry" />
        </mxCell>
        <mxCell id="viR3GrjmCNi1Ah79xZNa-4" value="Import Data" style="shape=module;align=left;spacingLeft=20;align=center;verticalAlign=top;fontSize=14;" parent="1" vertex="1">
          <mxGeometry x="450" y="120" width="100" height="50" as="geometry" />
        </mxCell>
        <mxCell id="viR3GrjmCNi1Ah79xZNa-6" value="Insert Data" style="shape=module;align=left;spacingLeft=20;align=center;verticalAlign=top;fontSize=14;" parent="1" vertex="1">
          <mxGeometry x="500" y="350" width="100" height="40" as="geometry" />
        </mxCell>
        <mxCell id="TKVynSnJHsTM0gxcN9qM-1" value="Xero" style="shape=module;align=left;spacingLeft=20;align=center;verticalAlign=top;fontSize=14;" parent="1" vertex="1">
          <mxGeometry x="300" y="470" width="100" height="40" as="geometry" />
        </mxCell>
        <mxCell id="TKVynSnJHsTM0gxcN9qM-2" style="edgeStyle=orthogonalEdgeStyle;rounded=0;orthogonalLoop=1;jettySize=auto;html=1;entryX=0.39;entryY=-0.075;entryDx=0;entryDy=0;entryPerimeter=0;" parent="1" source="d-2P2V6J5KiPjy37Av1H-1" target="TKVynSnJHsTM0gxcN9qM-1" edge="1">
          <mxGeometry relative="1" as="geometry" />
        </mxCell>
        <mxCell id="TKVynSnJHsTM0gxcN9qM-3" style="edgeStyle=orthogonalEdgeStyle;rounded=0;orthogonalLoop=1;jettySize=auto;html=1;entryX=0;entryY=0.5;entryDx=0;entryDy=0;entryPerimeter=0;" parent="1" source="TKVynSnJHsTM0gxcN9qM-1" target="wfGYhSurw_hQZ2FZEMr1-3" edge="1">
          <mxGeometry relative="1" as="geometry" />
        </mxCell>
        <mxCell id="TKVynSnJHsTM0gxcN9qM-4" value="MYOB" style="shape=module;align=left;spacingLeft=20;align=center;verticalAlign=top;fontSize=14;" parent="1" vertex="1">
          <mxGeometry x="300" y="620" width="100" height="40" as="geometry" />
        </mxCell>
        <mxCell id="FIOHq-qcBAxETr_4-Cpv-1" style="edgeStyle=orthogonalEdgeStyle;rounded=0;orthogonalLoop=1;jettySize=auto;html=1;entryX=0.02;entryY=0.55;entryDx=0;entryDy=0;entryPerimeter=0;" parent="1" source="d-2P2V6J5KiPjy37Av1H-1" target="TKVynSnJHsTM0gxcN9qM-4" edge="1">
          <mxGeometry relative="1" as="geometry">
            <Array as="points">
              <mxPoint x="150" y="580" />
              <mxPoint x="240" y="580" />
              <mxPoint x="240" y="642" />
            </Array>
          </mxGeometry>
        </mxCell>
        <mxCell id="FIOHq-qcBAxETr_4-Cpv-2" style="edgeStyle=orthogonalEdgeStyle;rounded=0;orthogonalLoop=1;jettySize=auto;html=1;entryX=0;entryY=0.5;entryDx=0;entryDy=0;entryPerimeter=0;" parent="1" source="TKVynSnJHsTM0gxcN9qM-4" target="wfGYhSurw_hQZ2FZEMr1-3" edge="1">
          <mxGeometry relative="1" as="geometry">
            <Array as="points">
              <mxPoint x="660" y="640" />
            </Array>
          </mxGeometry>
        </mxCell>
        <mxCell id="LcJpMCxMHI0K2vFpfAc6-3" style="edgeStyle=orthogonalEdgeStyle;rounded=0;orthogonalLoop=1;jettySize=auto;html=1;" parent="1" source="LcJpMCxMHI0K2vFpfAc6-1" edge="1">
          <mxGeometry relative="1" as="geometry">
            <mxPoint x="690" y="630" as="targetPoint" />
          </mxGeometry>
        </mxCell>
        <mxCell id="LcJpMCxMHI0K2vFpfAc6-1" value="Quickbook" style="shape=module;align=left;spacingLeft=20;align=center;verticalAlign=top;fontSize=14;" parent="1" vertex="1">
          <mxGeometry x="300" y="720" width="100" height="40" as="geometry" />
        </mxCell>
        <mxCell id="LcJpMCxMHI0K2vFpfAc6-2" style="edgeStyle=orthogonalEdgeStyle;rounded=0;orthogonalLoop=1;jettySize=auto;html=1;entryX=0.1;entryY=0.5;entryDx=0;entryDy=0;entryPerimeter=0;" parent="1" source="d-2P2V6J5KiPjy37Av1H-1" target="LcJpMCxMHI0K2vFpfAc6-1" edge="1">
          <mxGeometry relative="1" as="geometry">
            <Array as="points">
              <mxPoint x="100" y="740" />
            </Array>
          </mxGeometry>
        </mxCell>
      </root>
    </mxGraphModel>
  </diagram>
  <diagram id="_dtHiGdWreaNERkXBxrR" name="Page-6">
    <mxGraphModel dx="1434" dy="746" grid="1" gridSize="10" guides="1" tooltips="1" connect="1" arrows="1" fold="1" page="1" pageScale="1" pageWidth="850" pageHeight="1100" math="0" shadow="0">
      <root>
        <mxCell id="0" />
        <mxCell id="1" parent="0" />
        <mxCell id="_4xQ4pWa8IgfTEqWYsLa-14" value="" style="swimlane;startSize=0;movable=1;resizable=1;rotatable=1;deletable=1;editable=1;locked=0;connectable=1;" vertex="1" parent="1">
          <mxGeometry x="30" y="60" width="550" height="540" as="geometry">
            <mxRectangle x="30" y="60" width="50" height="40" as="alternateBounds" />
          </mxGeometry>
        </mxCell>
        <mxCell id="_4xQ4pWa8IgfTEqWYsLa-1" value="GroupTransaction" style="shape=table;startSize=30;container=1;collapsible=1;childLayout=tableLayout;fixedRows=1;rowLines=0;fontStyle=1;align=center;resizeLast=1;html=1;movable=1;resizable=1;rotatable=1;deletable=1;editable=1;locked=0;connectable=1;" vertex="1" parent="_4xQ4pWa8IgfTEqWYsLa-14">
          <mxGeometry x="60" y="60" width="170" height="90" as="geometry" />
        </mxCell>
        <mxCell id="_4xQ4pWa8IgfTEqWYsLa-2" value="" style="shape=tableRow;horizontal=0;startSize=0;swimlaneHead=0;swimlaneBody=0;fillColor=none;collapsible=0;dropTarget=0;points=[[0,0.5],[1,0.5]];portConstraint=eastwest;top=0;left=0;right=0;bottom=1;movable=1;resizable=1;rotatable=1;deletable=1;editable=1;locked=0;connectable=1;" vertex="1" parent="_4xQ4pWa8IgfTEqWYsLa-1">
          <mxGeometry y="30" width="170" height="30" as="geometry" />
        </mxCell>
        <mxCell id="_4xQ4pWa8IgfTEqWYsLa-3" value="PK" style="shape=partialRectangle;connectable=1;fillColor=none;top=0;left=0;bottom=0;right=0;fontStyle=1;overflow=hidden;whiteSpace=wrap;html=1;movable=1;resizable=1;rotatable=1;deletable=1;editable=1;locked=0;" vertex="1" parent="_4xQ4pWa8IgfTEqWYsLa-2">
          <mxGeometry width="30" height="30" as="geometry">
            <mxRectangle width="30" height="30" as="alternateBounds" />
          </mxGeometry>
        </mxCell>
        <mxCell id="_4xQ4pWa8IgfTEqWYsLa-4" value="GroupId" style="shape=partialRectangle;connectable=1;fillColor=none;top=0;left=0;bottom=0;right=0;align=left;spacingLeft=6;fontStyle=5;overflow=hidden;whiteSpace=wrap;html=1;movable=1;resizable=1;rotatable=1;deletable=1;editable=1;locked=0;" vertex="1" parent="_4xQ4pWa8IgfTEqWYsLa-2">
          <mxGeometry x="30" width="140" height="30" as="geometry">
            <mxRectangle width="140" height="30" as="alternateBounds" />
          </mxGeometry>
        </mxCell>
        <mxCell id="_4xQ4pWa8IgfTEqWYsLa-5" value="" style="shape=tableRow;horizontal=0;startSize=0;swimlaneHead=0;swimlaneBody=0;fillColor=none;collapsible=0;dropTarget=0;points=[[0,0.5],[1,0.5]];portConstraint=eastwest;top=0;left=0;right=0;bottom=0;movable=1;resizable=1;rotatable=1;deletable=1;editable=1;locked=0;connectable=1;" vertex="1" parent="_4xQ4pWa8IgfTEqWYsLa-1">
          <mxGeometry y="60" width="170" height="30" as="geometry" />
        </mxCell>
        <mxCell id="_4xQ4pWa8IgfTEqWYsLa-6" value="" style="shape=partialRectangle;connectable=1;fillColor=none;top=0;left=0;bottom=0;right=0;editable=1;overflow=hidden;whiteSpace=wrap;html=1;movable=1;resizable=1;rotatable=1;deletable=1;locked=0;" vertex="1" parent="_4xQ4pWa8IgfTEqWYsLa-5">
          <mxGeometry width="30" height="30" as="geometry">
            <mxRectangle width="30" height="30" as="alternateBounds" />
          </mxGeometry>
        </mxCell>
        <mxCell id="_4xQ4pWa8IgfTEqWYsLa-7" value="GroupName" style="shape=partialRectangle;connectable=1;fillColor=none;top=0;left=0;bottom=0;right=0;align=left;spacingLeft=6;overflow=hidden;whiteSpace=wrap;html=1;movable=1;resizable=1;rotatable=1;deletable=1;editable=1;locked=0;" vertex="1" parent="_4xQ4pWa8IgfTEqWYsLa-5">
          <mxGeometry x="30" width="140" height="30" as="geometry">
            <mxRectangle width="140" height="30" as="alternateBounds" />
          </mxGeometry>
        </mxCell>
        <mxCell id="_4xQ4pWa8IgfTEqWYsLa-16" value="TransactionType" style="shape=table;startSize=30;container=1;collapsible=1;childLayout=tableLayout;fixedRows=1;rowLines=0;fontStyle=1;align=center;resizeLast=1;html=1;movable=1;resizable=1;rotatable=1;deletable=1;editable=1;locked=0;connectable=1;" vertex="1" parent="_4xQ4pWa8IgfTEqWYsLa-14">
          <mxGeometry x="290" y="60" width="170" height="90" as="geometry" />
        </mxCell>
        <mxCell id="_4xQ4pWa8IgfTEqWYsLa-17" value="" style="shape=tableRow;horizontal=0;startSize=0;swimlaneHead=0;swimlaneBody=0;fillColor=none;collapsible=0;dropTarget=0;points=[[0,0.5],[1,0.5]];portConstraint=eastwest;top=0;left=0;right=0;bottom=1;movable=1;resizable=1;rotatable=1;deletable=1;editable=1;locked=0;connectable=1;" vertex="1" parent="_4xQ4pWa8IgfTEqWYsLa-16">
          <mxGeometry y="30" width="170" height="30" as="geometry" />
        </mxCell>
        <mxCell id="_4xQ4pWa8IgfTEqWYsLa-18" value="PK" style="shape=partialRectangle;connectable=1;fillColor=none;top=0;left=0;bottom=0;right=0;fontStyle=1;overflow=hidden;whiteSpace=wrap;html=1;movable=1;resizable=1;rotatable=1;deletable=1;editable=1;locked=0;" vertex="1" parent="_4xQ4pWa8IgfTEqWYsLa-17">
          <mxGeometry width="30" height="30" as="geometry">
            <mxRectangle width="30" height="30" as="alternateBounds" />
          </mxGeometry>
        </mxCell>
        <mxCell id="_4xQ4pWa8IgfTEqWYsLa-19" value="TypeId" style="shape=partialRectangle;connectable=1;fillColor=none;top=0;left=0;bottom=0;right=0;align=left;spacingLeft=6;fontStyle=5;overflow=hidden;whiteSpace=wrap;html=1;movable=1;resizable=1;rotatable=1;deletable=1;editable=1;locked=0;" vertex="1" parent="_4xQ4pWa8IgfTEqWYsLa-17">
          <mxGeometry x="30" width="140" height="30" as="geometry">
            <mxRectangle width="140" height="30" as="alternateBounds" />
          </mxGeometry>
        </mxCell>
        <mxCell id="_4xQ4pWa8IgfTEqWYsLa-20" value="" style="shape=tableRow;horizontal=0;startSize=0;swimlaneHead=0;swimlaneBody=0;fillColor=none;collapsible=0;dropTarget=0;points=[[0,0.5],[1,0.5]];portConstraint=eastwest;top=0;left=0;right=0;bottom=0;movable=1;resizable=1;rotatable=1;deletable=1;editable=1;locked=0;connectable=1;" vertex="1" parent="_4xQ4pWa8IgfTEqWYsLa-16">
          <mxGeometry y="60" width="170" height="30" as="geometry" />
        </mxCell>
        <mxCell id="_4xQ4pWa8IgfTEqWYsLa-21" value="" style="shape=partialRectangle;connectable=1;fillColor=none;top=0;left=0;bottom=0;right=0;editable=1;overflow=hidden;whiteSpace=wrap;html=1;movable=1;resizable=1;rotatable=1;deletable=1;locked=0;" vertex="1" parent="_4xQ4pWa8IgfTEqWYsLa-20">
          <mxGeometry width="30" height="30" as="geometry">
            <mxRectangle width="30" height="30" as="alternateBounds" />
          </mxGeometry>
        </mxCell>
        <mxCell id="_4xQ4pWa8IgfTEqWYsLa-22" value="Desccription" style="shape=partialRectangle;connectable=1;fillColor=none;top=0;left=0;bottom=0;right=0;align=left;spacingLeft=6;overflow=hidden;whiteSpace=wrap;html=1;movable=1;resizable=1;rotatable=1;deletable=1;editable=1;locked=0;" vertex="1" parent="_4xQ4pWa8IgfTEqWYsLa-20">
          <mxGeometry x="30" width="140" height="30" as="geometry">
            <mxRectangle width="140" height="30" as="alternateBounds" />
          </mxGeometry>
        </mxCell>
        <mxCell id="_4xQ4pWa8IgfTEqWYsLa-62" value="ProfitLossTransaction" style="shape=table;startSize=30;container=1;collapsible=1;childLayout=tableLayout;fixedRows=1;rowLines=0;fontStyle=1;align=center;resizeLast=1;html=1;movable=1;resizable=1;rotatable=1;deletable=1;editable=1;locked=0;connectable=1;" vertex="1" parent="_4xQ4pWa8IgfTEqWYsLa-14">
          <mxGeometry x="100" y="240" width="180" height="210" as="geometry" />
        </mxCell>
        <mxCell id="_4xQ4pWa8IgfTEqWYsLa-63" value="" style="shape=tableRow;horizontal=0;startSize=0;swimlaneHead=0;swimlaneBody=0;fillColor=none;collapsible=0;dropTarget=0;points=[[0,0.5],[1,0.5]];portConstraint=eastwest;top=0;left=0;right=0;bottom=1;movable=1;resizable=1;rotatable=1;deletable=1;editable=1;locked=0;connectable=1;" vertex="1" parent="_4xQ4pWa8IgfTEqWYsLa-62">
          <mxGeometry y="30" width="180" height="30" as="geometry" />
        </mxCell>
        <mxCell id="_4xQ4pWa8IgfTEqWYsLa-64" value="PK" style="shape=partialRectangle;connectable=1;fillColor=none;top=0;left=0;bottom=0;right=0;fontStyle=1;overflow=hidden;whiteSpace=wrap;html=1;movable=1;resizable=1;rotatable=1;deletable=1;editable=1;locked=0;" vertex="1" parent="_4xQ4pWa8IgfTEqWYsLa-63">
          <mxGeometry width="30" height="30" as="geometry">
            <mxRectangle width="30" height="30" as="alternateBounds" />
          </mxGeometry>
        </mxCell>
        <mxCell id="_4xQ4pWa8IgfTEqWYsLa-65" value="AccountId" style="shape=partialRectangle;connectable=1;fillColor=none;top=0;left=0;bottom=0;right=0;align=left;spacingLeft=6;fontStyle=5;overflow=hidden;whiteSpace=wrap;html=1;movable=1;resizable=1;rotatable=1;deletable=1;editable=1;locked=0;" vertex="1" parent="_4xQ4pWa8IgfTEqWYsLa-63">
          <mxGeometry x="30" width="150" height="30" as="geometry">
            <mxRectangle width="150" height="30" as="alternateBounds" />
          </mxGeometry>
        </mxCell>
        <mxCell id="_4xQ4pWa8IgfTEqWYsLa-66" value="" style="shape=tableRow;horizontal=0;startSize=0;swimlaneHead=0;swimlaneBody=0;fillColor=none;collapsible=0;dropTarget=0;points=[[0,0.5],[1,0.5]];portConstraint=eastwest;top=0;left=0;right=0;bottom=0;movable=1;resizable=1;rotatable=1;deletable=1;editable=1;locked=0;connectable=1;" vertex="1" parent="_4xQ4pWa8IgfTEqWYsLa-62">
          <mxGeometry y="60" width="180" height="30" as="geometry" />
        </mxCell>
        <mxCell id="_4xQ4pWa8IgfTEqWYsLa-67" value="" style="shape=partialRectangle;connectable=1;fillColor=none;top=0;left=0;bottom=0;right=0;editable=1;overflow=hidden;whiteSpace=wrap;html=1;movable=1;resizable=1;rotatable=1;deletable=1;locked=0;" vertex="1" parent="_4xQ4pWa8IgfTEqWYsLa-66">
          <mxGeometry width="30" height="30" as="geometry">
            <mxRectangle width="30" height="30" as="alternateBounds" />
          </mxGeometry>
        </mxCell>
        <mxCell id="_4xQ4pWa8IgfTEqWYsLa-68" value="AccountName" style="shape=partialRectangle;connectable=1;fillColor=none;top=0;left=0;bottom=0;right=0;align=left;spacingLeft=6;overflow=hidden;whiteSpace=wrap;html=1;movable=1;resizable=1;rotatable=1;deletable=1;editable=1;locked=0;" vertex="1" parent="_4xQ4pWa8IgfTEqWYsLa-66">
          <mxGeometry x="30" width="150" height="30" as="geometry">
            <mxRectangle width="150" height="30" as="alternateBounds" />
          </mxGeometry>
        </mxCell>
        <mxCell id="_4xQ4pWa8IgfTEqWYsLa-69" value="" style="shape=tableRow;horizontal=0;startSize=0;swimlaneHead=0;swimlaneBody=0;fillColor=none;collapsible=0;dropTarget=0;points=[[0,0.5],[1,0.5]];portConstraint=eastwest;top=0;left=0;right=0;bottom=0;movable=1;resizable=1;rotatable=1;deletable=1;editable=1;locked=0;connectable=1;" vertex="1" parent="_4xQ4pWa8IgfTEqWYsLa-62">
          <mxGeometry y="90" width="180" height="30" as="geometry" />
        </mxCell>
        <mxCell id="_4xQ4pWa8IgfTEqWYsLa-70" value="" style="shape=partialRectangle;connectable=1;fillColor=none;top=0;left=0;bottom=0;right=0;editable=1;overflow=hidden;whiteSpace=wrap;html=1;movable=1;resizable=1;rotatable=1;deletable=1;locked=0;" vertex="1" parent="_4xQ4pWa8IgfTEqWYsLa-69">
          <mxGeometry width="30" height="30" as="geometry">
            <mxRectangle width="30" height="30" as="alternateBounds" />
          </mxGeometry>
        </mxCell>
        <mxCell id="_4xQ4pWa8IgfTEqWYsLa-71" value="Date" style="shape=partialRectangle;connectable=1;fillColor=none;top=0;left=0;bottom=0;right=0;align=left;spacingLeft=6;overflow=hidden;whiteSpace=wrap;html=1;movable=1;resizable=1;rotatable=1;deletable=1;editable=1;locked=0;" vertex="1" parent="_4xQ4pWa8IgfTEqWYsLa-69">
          <mxGeometry x="30" width="150" height="30" as="geometry">
            <mxRectangle width="150" height="30" as="alternateBounds" />
          </mxGeometry>
        </mxCell>
        <mxCell id="_4xQ4pWa8IgfTEqWYsLa-72" value="" style="shape=tableRow;horizontal=0;startSize=0;swimlaneHead=0;swimlaneBody=0;fillColor=none;collapsible=0;dropTarget=0;points=[[0,0.5],[1,0.5]];portConstraint=eastwest;top=0;left=0;right=0;bottom=0;movable=1;resizable=1;rotatable=1;deletable=1;editable=1;locked=0;connectable=1;" vertex="1" parent="_4xQ4pWa8IgfTEqWYsLa-62">
          <mxGeometry y="120" width="180" height="30" as="geometry" />
        </mxCell>
        <mxCell id="_4xQ4pWa8IgfTEqWYsLa-73" value="" style="shape=partialRectangle;connectable=1;fillColor=none;top=0;left=0;bottom=0;right=0;editable=1;overflow=hidden;whiteSpace=wrap;html=1;movable=1;resizable=1;rotatable=1;deletable=1;locked=0;" vertex="1" parent="_4xQ4pWa8IgfTEqWYsLa-72">
          <mxGeometry width="30" height="30" as="geometry">
            <mxRectangle width="30" height="30" as="alternateBounds" />
          </mxGeometry>
        </mxCell>
        <mxCell id="_4xQ4pWa8IgfTEqWYsLa-74" value="Amount" style="shape=partialRectangle;connectable=1;fillColor=none;top=0;left=0;bottom=0;right=0;align=left;spacingLeft=6;overflow=hidden;whiteSpace=wrap;html=1;movable=1;resizable=1;rotatable=1;deletable=1;editable=1;locked=0;" vertex="1" parent="_4xQ4pWa8IgfTEqWYsLa-72">
          <mxGeometry x="30" width="150" height="30" as="geometry">
            <mxRectangle width="150" height="30" as="alternateBounds" />
          </mxGeometry>
        </mxCell>
        <mxCell id="_4xQ4pWa8IgfTEqWYsLa-81" value="" style="shape=tableRow;horizontal=0;startSize=0;swimlaneHead=0;swimlaneBody=0;fillColor=none;collapsible=0;dropTarget=0;points=[[0,0.5],[1,0.5]];portConstraint=eastwest;top=0;left=0;right=0;bottom=0;movable=1;resizable=1;rotatable=1;deletable=1;editable=1;locked=0;connectable=1;" vertex="1" parent="_4xQ4pWa8IgfTEqWYsLa-62">
          <mxGeometry y="150" width="180" height="30" as="geometry" />
        </mxCell>
        <mxCell id="_4xQ4pWa8IgfTEqWYsLa-82" value="FK" style="shape=partialRectangle;connectable=1;fillColor=none;top=0;left=0;bottom=0;right=0;editable=1;overflow=hidden;whiteSpace=wrap;html=1;movable=1;resizable=1;rotatable=1;deletable=1;locked=0;" vertex="1" parent="_4xQ4pWa8IgfTEqWYsLa-81">
          <mxGeometry width="30" height="30" as="geometry">
            <mxRectangle width="30" height="30" as="alternateBounds" />
          </mxGeometry>
        </mxCell>
        <mxCell id="_4xQ4pWa8IgfTEqWYsLa-83" value="TypeId" style="shape=partialRectangle;connectable=1;fillColor=none;top=0;left=0;bottom=0;right=0;align=left;spacingLeft=6;overflow=hidden;whiteSpace=wrap;html=1;movable=1;resizable=1;rotatable=1;deletable=1;editable=1;locked=0;" vertex="1" parent="_4xQ4pWa8IgfTEqWYsLa-81">
          <mxGeometry x="30" width="150" height="30" as="geometry">
            <mxRectangle width="150" height="30" as="alternateBounds" />
          </mxGeometry>
        </mxCell>
        <mxCell id="_4xQ4pWa8IgfTEqWYsLa-84" value="" style="shape=tableRow;horizontal=0;startSize=0;swimlaneHead=0;swimlaneBody=0;fillColor=none;collapsible=0;dropTarget=0;points=[[0,0.5],[1,0.5]];portConstraint=eastwest;top=0;left=0;right=0;bottom=0;movable=1;resizable=1;rotatable=1;deletable=1;editable=1;locked=0;connectable=1;" vertex="1" parent="_4xQ4pWa8IgfTEqWYsLa-62">
          <mxGeometry y="180" width="180" height="30" as="geometry" />
        </mxCell>
        <mxCell id="_4xQ4pWa8IgfTEqWYsLa-85" value="FK" style="shape=partialRectangle;connectable=1;fillColor=none;top=0;left=0;bottom=0;right=0;editable=1;overflow=hidden;whiteSpace=wrap;html=1;movable=1;resizable=1;rotatable=1;deletable=1;locked=0;" vertex="1" parent="_4xQ4pWa8IgfTEqWYsLa-84">
          <mxGeometry width="30" height="30" as="geometry">
            <mxRectangle width="30" height="30" as="alternateBounds" />
          </mxGeometry>
        </mxCell>
        <mxCell id="_4xQ4pWa8IgfTEqWYsLa-86" value="GroupId" style="shape=partialRectangle;connectable=1;fillColor=none;top=0;left=0;bottom=0;right=0;align=left;spacingLeft=6;overflow=hidden;whiteSpace=wrap;html=1;movable=1;resizable=1;rotatable=1;deletable=1;editable=1;locked=0;" vertex="1" parent="_4xQ4pWa8IgfTEqWYsLa-84">
          <mxGeometry x="30" width="150" height="30" as="geometry">
            <mxRectangle width="150" height="30" as="alternateBounds" />
          </mxGeometry>
        </mxCell>
        <mxCell id="_4xQ4pWa8IgfTEqWYsLa-75" style="edgeStyle=orthogonalEdgeStyle;rounded=0;orthogonalLoop=1;jettySize=auto;html=1;entryX=0.556;entryY=0;entryDx=0;entryDy=0;entryPerimeter=0;movable=1;resizable=1;rotatable=1;deletable=1;editable=1;locked=0;connectable=1;" edge="1" parent="_4xQ4pWa8IgfTEqWYsLa-14" source="_4xQ4pWa8IgfTEqWYsLa-1" target="_4xQ4pWa8IgfTEqWYsLa-62">
          <mxGeometry relative="1" as="geometry" />
        </mxCell>
        <mxCell id="_4xQ4pWa8IgfTEqWYsLa-77" style="edgeStyle=orthogonalEdgeStyle;rounded=0;orthogonalLoop=1;jettySize=auto;html=1;entryX=0.55;entryY=-0.02;entryDx=0;entryDy=0;entryPerimeter=0;movable=1;resizable=1;rotatable=1;deletable=1;editable=1;locked=0;connectable=1;" edge="1" parent="_4xQ4pWa8IgfTEqWYsLa-14" source="_4xQ4pWa8IgfTEqWYsLa-16" target="_4xQ4pWa8IgfTEqWYsLa-62">
          <mxGeometry relative="1" as="geometry">
            <Array as="points">
              <mxPoint x="455" y="180" />
              <mxPoint x="230" y="180" />
              <mxPoint x="230" y="237" />
            </Array>
          </mxGeometry>
        </mxCell>
        <mxCell id="_4xQ4pWa8IgfTEqWYsLa-87" value="Profit &amp;amp; Loss" style="text;html=1;align=center;verticalAlign=middle;resizable=1;points=[];autosize=1;strokeColor=none;fillColor=none;movable=1;rotatable=1;deletable=1;editable=1;locked=0;connectable=1;fontStyle=1" vertex="1" parent="_4xQ4pWa8IgfTEqWYsLa-14">
          <mxGeometry x="5" width="100" height="30" as="geometry" />
        </mxCell>
        <mxCell id="_4xQ4pWa8IgfTEqWYsLa-125" value="" style="swimlane;startSize=0;movable=1;resizable=1;rotatable=1;deletable=1;editable=1;locked=0;connectable=1;" vertex="1" parent="1">
          <mxGeometry x="660" y="60" width="550" height="540" as="geometry">
            <mxRectangle x="30" y="60" width="50" height="40" as="alternateBounds" />
          </mxGeometry>
        </mxCell>
        <mxCell id="_4xQ4pWa8IgfTEqWYsLa-126" value="AssetLiabilityTypes" style="shape=table;startSize=30;container=1;collapsible=1;childLayout=tableLayout;fixedRows=1;rowLines=0;fontStyle=1;align=center;resizeLast=1;html=1;movable=1;resizable=1;rotatable=1;deletable=1;editable=1;locked=0;connectable=1;" vertex="1" parent="_4xQ4pWa8IgfTEqWYsLa-125">
          <mxGeometry x="60" y="60" width="220" height="120" as="geometry" />
        </mxCell>
        <mxCell id="_4xQ4pWa8IgfTEqWYsLa-127" value="" style="shape=tableRow;horizontal=0;startSize=0;swimlaneHead=0;swimlaneBody=0;fillColor=none;collapsible=0;dropTarget=0;points=[[0,0.5],[1,0.5]];portConstraint=eastwest;top=0;left=0;right=0;bottom=1;movable=1;resizable=1;rotatable=1;deletable=1;editable=1;locked=0;connectable=1;" vertex="1" parent="_4xQ4pWa8IgfTEqWYsLa-126">
          <mxGeometry y="30" width="220" height="30" as="geometry" />
        </mxCell>
        <mxCell id="_4xQ4pWa8IgfTEqWYsLa-128" value="PK" style="shape=partialRectangle;connectable=1;fillColor=none;top=0;left=0;bottom=0;right=0;fontStyle=1;overflow=hidden;whiteSpace=wrap;html=1;movable=1;resizable=1;rotatable=1;deletable=1;editable=1;locked=0;" vertex="1" parent="_4xQ4pWa8IgfTEqWYsLa-127">
          <mxGeometry width="30" height="30" as="geometry">
            <mxRectangle width="30" height="30" as="alternateBounds" />
          </mxGeometry>
        </mxCell>
        <mxCell id="_4xQ4pWa8IgfTEqWYsLa-129" value="TypeId" style="shape=partialRectangle;connectable=1;fillColor=none;top=0;left=0;bottom=0;right=0;align=left;spacingLeft=6;fontStyle=5;overflow=hidden;whiteSpace=wrap;html=1;movable=1;resizable=1;rotatable=1;deletable=1;editable=1;locked=0;" vertex="1" parent="_4xQ4pWa8IgfTEqWYsLa-127">
          <mxGeometry x="30" width="190" height="30" as="geometry">
            <mxRectangle width="190" height="30" as="alternateBounds" />
          </mxGeometry>
        </mxCell>
        <mxCell id="_4xQ4pWa8IgfTEqWYsLa-130" value="" style="shape=tableRow;horizontal=0;startSize=0;swimlaneHead=0;swimlaneBody=0;fillColor=none;collapsible=0;dropTarget=0;points=[[0,0.5],[1,0.5]];portConstraint=eastwest;top=0;left=0;right=0;bottom=0;movable=1;resizable=1;rotatable=1;deletable=1;editable=1;locked=0;connectable=1;" vertex="1" parent="_4xQ4pWa8IgfTEqWYsLa-126">
          <mxGeometry y="60" width="220" height="30" as="geometry" />
        </mxCell>
        <mxCell id="_4xQ4pWa8IgfTEqWYsLa-131" value="" style="shape=partialRectangle;connectable=1;fillColor=none;top=0;left=0;bottom=0;right=0;editable=1;overflow=hidden;whiteSpace=wrap;html=1;movable=1;resizable=1;rotatable=1;deletable=1;locked=0;" vertex="1" parent="_4xQ4pWa8IgfTEqWYsLa-130">
          <mxGeometry width="30" height="30" as="geometry">
            <mxRectangle width="30" height="30" as="alternateBounds" />
          </mxGeometry>
        </mxCell>
        <mxCell id="_4xQ4pWa8IgfTEqWYsLa-132" value="TypeName" style="shape=partialRectangle;connectable=1;fillColor=none;top=0;left=0;bottom=0;right=0;align=left;spacingLeft=6;overflow=hidden;whiteSpace=wrap;html=1;movable=1;resizable=1;rotatable=1;deletable=1;editable=1;locked=0;" vertex="1" parent="_4xQ4pWa8IgfTEqWYsLa-130">
          <mxGeometry x="30" width="190" height="30" as="geometry">
            <mxRectangle width="190" height="30" as="alternateBounds" />
          </mxGeometry>
        </mxCell>
        <mxCell id="_4xQ4pWa8IgfTEqWYsLa-169" value="" style="shape=tableRow;horizontal=0;startSize=0;swimlaneHead=0;swimlaneBody=0;fillColor=none;collapsible=0;dropTarget=0;points=[[0,0.5],[1,0.5]];portConstraint=eastwest;top=0;left=0;right=0;bottom=0;movable=1;resizable=1;rotatable=1;deletable=1;editable=1;locked=0;connectable=1;" vertex="1" parent="_4xQ4pWa8IgfTEqWYsLa-126">
          <mxGeometry y="90" width="220" height="30" as="geometry" />
        </mxCell>
        <mxCell id="_4xQ4pWa8IgfTEqWYsLa-170" value="" style="shape=partialRectangle;connectable=1;fillColor=none;top=0;left=0;bottom=0;right=0;editable=1;overflow=hidden;whiteSpace=wrap;html=1;movable=1;resizable=1;rotatable=1;deletable=1;locked=0;" vertex="1" parent="_4xQ4pWa8IgfTEqWYsLa-169">
          <mxGeometry width="30" height="30" as="geometry">
            <mxRectangle width="30" height="30" as="alternateBounds" />
          </mxGeometry>
        </mxCell>
        <mxCell id="_4xQ4pWa8IgfTEqWYsLa-171" value="TypeCategory (Asset, Liability)" style="shape=partialRectangle;connectable=1;fillColor=none;top=0;left=0;bottom=0;right=0;align=left;spacingLeft=6;overflow=hidden;whiteSpace=wrap;html=1;movable=1;resizable=1;rotatable=1;deletable=1;editable=1;locked=0;" vertex="1" parent="_4xQ4pWa8IgfTEqWYsLa-169">
          <mxGeometry x="30" width="190" height="30" as="geometry">
            <mxRectangle width="190" height="30" as="alternateBounds" />
          </mxGeometry>
        </mxCell>
        <mxCell id="_4xQ4pWa8IgfTEqWYsLa-140" value="Balance" style="shape=table;startSize=30;container=1;collapsible=1;childLayout=tableLayout;fixedRows=1;rowLines=0;fontStyle=1;align=center;resizeLast=1;html=1;movable=1;resizable=1;rotatable=1;deletable=1;editable=1;locked=0;connectable=1;" vertex="1" parent="_4xQ4pWa8IgfTEqWYsLa-125">
          <mxGeometry x="100" y="240" width="180" height="210" as="geometry" />
        </mxCell>
        <mxCell id="_4xQ4pWa8IgfTEqWYsLa-141" value="" style="shape=tableRow;horizontal=0;startSize=0;swimlaneHead=0;swimlaneBody=0;fillColor=none;collapsible=0;dropTarget=0;points=[[0,0.5],[1,0.5]];portConstraint=eastwest;top=0;left=0;right=0;bottom=1;movable=1;resizable=1;rotatable=1;deletable=1;editable=1;locked=0;connectable=1;" vertex="1" parent="_4xQ4pWa8IgfTEqWYsLa-140">
          <mxGeometry y="30" width="180" height="30" as="geometry" />
        </mxCell>
        <mxCell id="_4xQ4pWa8IgfTEqWYsLa-142" value="PK" style="shape=partialRectangle;connectable=1;fillColor=none;top=0;left=0;bottom=0;right=0;fontStyle=1;overflow=hidden;whiteSpace=wrap;html=1;movable=1;resizable=1;rotatable=1;deletable=1;editable=1;locked=0;" vertex="1" parent="_4xQ4pWa8IgfTEqWYsLa-141">
          <mxGeometry width="30" height="30" as="geometry">
            <mxRectangle width="30" height="30" as="alternateBounds" />
          </mxGeometry>
        </mxCell>
        <mxCell id="_4xQ4pWa8IgfTEqWYsLa-143" value="TransactionId" style="shape=partialRectangle;connectable=1;fillColor=none;top=0;left=0;bottom=0;right=0;align=left;spacingLeft=6;fontStyle=5;overflow=hidden;whiteSpace=wrap;html=1;movable=1;resizable=1;rotatable=1;deletable=1;editable=1;locked=0;" vertex="1" parent="_4xQ4pWa8IgfTEqWYsLa-141">
          <mxGeometry x="30" width="150" height="30" as="geometry">
            <mxRectangle width="150" height="30" as="alternateBounds" />
          </mxGeometry>
        </mxCell>
        <mxCell id="_4xQ4pWa8IgfTEqWYsLa-144" value="" style="shape=tableRow;horizontal=0;startSize=0;swimlaneHead=0;swimlaneBody=0;fillColor=none;collapsible=0;dropTarget=0;points=[[0,0.5],[1,0.5]];portConstraint=eastwest;top=0;left=0;right=0;bottom=0;movable=1;resizable=1;rotatable=1;deletable=1;editable=1;locked=0;connectable=1;" vertex="1" parent="_4xQ4pWa8IgfTEqWYsLa-140">
          <mxGeometry y="60" width="180" height="30" as="geometry" />
        </mxCell>
        <mxCell id="_4xQ4pWa8IgfTEqWYsLa-145" value="" style="shape=partialRectangle;connectable=1;fillColor=none;top=0;left=0;bottom=0;right=0;editable=1;overflow=hidden;whiteSpace=wrap;html=1;movable=1;resizable=1;rotatable=1;deletable=1;locked=0;" vertex="1" parent="_4xQ4pWa8IgfTEqWYsLa-144">
          <mxGeometry width="30" height="30" as="geometry">
            <mxRectangle width="30" height="30" as="alternateBounds" />
          </mxGeometry>
        </mxCell>
        <mxCell id="_4xQ4pWa8IgfTEqWYsLa-146" value="AccountName" style="shape=partialRectangle;connectable=1;fillColor=none;top=0;left=0;bottom=0;right=0;align=left;spacingLeft=6;overflow=hidden;whiteSpace=wrap;html=1;movable=1;resizable=1;rotatable=1;deletable=1;editable=1;locked=0;" vertex="1" parent="_4xQ4pWa8IgfTEqWYsLa-144">
          <mxGeometry x="30" width="150" height="30" as="geometry">
            <mxRectangle width="150" height="30" as="alternateBounds" />
          </mxGeometry>
        </mxCell>
        <mxCell id="_4xQ4pWa8IgfTEqWYsLa-147" value="" style="shape=tableRow;horizontal=0;startSize=0;swimlaneHead=0;swimlaneBody=0;fillColor=none;collapsible=0;dropTarget=0;points=[[0,0.5],[1,0.5]];portConstraint=eastwest;top=0;left=0;right=0;bottom=0;movable=1;resizable=1;rotatable=1;deletable=1;editable=1;locked=0;connectable=1;" vertex="1" parent="_4xQ4pWa8IgfTEqWYsLa-140">
          <mxGeometry y="90" width="180" height="30" as="geometry" />
        </mxCell>
        <mxCell id="_4xQ4pWa8IgfTEqWYsLa-148" value="" style="shape=partialRectangle;connectable=1;fillColor=none;top=0;left=0;bottom=0;right=0;editable=1;overflow=hidden;whiteSpace=wrap;html=1;movable=1;resizable=1;rotatable=1;deletable=1;locked=0;" vertex="1" parent="_4xQ4pWa8IgfTEqWYsLa-147">
          <mxGeometry width="30" height="30" as="geometry">
            <mxRectangle width="30" height="30" as="alternateBounds" />
          </mxGeometry>
        </mxCell>
        <mxCell id="_4xQ4pWa8IgfTEqWYsLa-149" value="Date" style="shape=partialRectangle;connectable=1;fillColor=none;top=0;left=0;bottom=0;right=0;align=left;spacingLeft=6;overflow=hidden;whiteSpace=wrap;html=1;movable=1;resizable=1;rotatable=1;deletable=1;editable=1;locked=0;" vertex="1" parent="_4xQ4pWa8IgfTEqWYsLa-147">
          <mxGeometry x="30" width="150" height="30" as="geometry">
            <mxRectangle width="150" height="30" as="alternateBounds" />
          </mxGeometry>
        </mxCell>
        <mxCell id="_4xQ4pWa8IgfTEqWYsLa-150" value="" style="shape=tableRow;horizontal=0;startSize=0;swimlaneHead=0;swimlaneBody=0;fillColor=none;collapsible=0;dropTarget=0;points=[[0,0.5],[1,0.5]];portConstraint=eastwest;top=0;left=0;right=0;bottom=0;movable=1;resizable=1;rotatable=1;deletable=1;editable=1;locked=0;connectable=1;" vertex="1" parent="_4xQ4pWa8IgfTEqWYsLa-140">
          <mxGeometry y="120" width="180" height="30" as="geometry" />
        </mxCell>
        <mxCell id="_4xQ4pWa8IgfTEqWYsLa-151" value="" style="shape=partialRectangle;connectable=1;fillColor=none;top=0;left=0;bottom=0;right=0;editable=1;overflow=hidden;whiteSpace=wrap;html=1;movable=1;resizable=1;rotatable=1;deletable=1;locked=0;" vertex="1" parent="_4xQ4pWa8IgfTEqWYsLa-150">
          <mxGeometry width="30" height="30" as="geometry">
            <mxRectangle width="30" height="30" as="alternateBounds" />
          </mxGeometry>
        </mxCell>
        <mxCell id="_4xQ4pWa8IgfTEqWYsLa-152" value="TypeId" style="shape=partialRectangle;connectable=1;fillColor=none;top=0;left=0;bottom=0;right=0;align=left;spacingLeft=6;overflow=hidden;whiteSpace=wrap;html=1;movable=1;resizable=1;rotatable=1;deletable=1;editable=1;locked=0;" vertex="1" parent="_4xQ4pWa8IgfTEqWYsLa-150">
          <mxGeometry x="30" width="150" height="30" as="geometry">
            <mxRectangle width="150" height="30" as="alternateBounds" />
          </mxGeometry>
        </mxCell>
        <mxCell id="_4xQ4pWa8IgfTEqWYsLa-153" value="" style="shape=tableRow;horizontal=0;startSize=0;swimlaneHead=0;swimlaneBody=0;fillColor=none;collapsible=0;dropTarget=0;points=[[0,0.5],[1,0.5]];portConstraint=eastwest;top=0;left=0;right=0;bottom=0;movable=1;resizable=1;rotatable=1;deletable=1;editable=1;locked=0;connectable=1;" vertex="1" parent="_4xQ4pWa8IgfTEqWYsLa-140">
          <mxGeometry y="150" width="180" height="30" as="geometry" />
        </mxCell>
        <mxCell id="_4xQ4pWa8IgfTEqWYsLa-154" value="" style="shape=partialRectangle;connectable=1;fillColor=none;top=0;left=0;bottom=0;right=0;editable=1;overflow=hidden;whiteSpace=wrap;html=1;movable=1;resizable=1;rotatable=1;deletable=1;locked=0;" vertex="1" parent="_4xQ4pWa8IgfTEqWYsLa-153">
          <mxGeometry width="30" height="30" as="geometry">
            <mxRectangle width="30" height="30" as="alternateBounds" />
          </mxGeometry>
        </mxCell>
        <mxCell id="_4xQ4pWa8IgfTEqWYsLa-155" value="Amount" style="shape=partialRectangle;connectable=1;fillColor=none;top=0;left=0;bottom=0;right=0;align=left;spacingLeft=6;overflow=hidden;whiteSpace=wrap;html=1;movable=1;resizable=1;rotatable=1;deletable=1;editable=1;locked=0;" vertex="1" parent="_4xQ4pWa8IgfTEqWYsLa-153">
          <mxGeometry x="30" width="150" height="30" as="geometry">
            <mxRectangle width="150" height="30" as="alternateBounds" />
          </mxGeometry>
        </mxCell>
        <mxCell id="_4xQ4pWa8IgfTEqWYsLa-156" value="" style="shape=tableRow;horizontal=0;startSize=0;swimlaneHead=0;swimlaneBody=0;fillColor=none;collapsible=0;dropTarget=0;points=[[0,0.5],[1,0.5]];portConstraint=eastwest;top=0;left=0;right=0;bottom=0;movable=1;resizable=1;rotatable=1;deletable=1;editable=1;locked=0;connectable=1;" vertex="1" parent="_4xQ4pWa8IgfTEqWYsLa-140">
          <mxGeometry y="180" width="180" height="30" as="geometry" />
        </mxCell>
        <mxCell id="_4xQ4pWa8IgfTEqWYsLa-157" value="" style="shape=partialRectangle;connectable=1;fillColor=none;top=0;left=0;bottom=0;right=0;editable=1;overflow=hidden;whiteSpace=wrap;html=1;movable=1;resizable=1;rotatable=1;deletable=1;locked=0;" vertex="1" parent="_4xQ4pWa8IgfTEqWYsLa-156">
          <mxGeometry width="30" height="30" as="geometry">
            <mxRectangle width="30" height="30" as="alternateBounds" />
          </mxGeometry>
        </mxCell>
        <mxCell id="_4xQ4pWa8IgfTEqWYsLa-158" value="Description" style="shape=partialRectangle;connectable=1;fillColor=none;top=0;left=0;bottom=0;right=0;align=left;spacingLeft=6;overflow=hidden;whiteSpace=wrap;html=1;movable=1;resizable=1;rotatable=1;deletable=1;editable=1;locked=0;" vertex="1" parent="_4xQ4pWa8IgfTEqWYsLa-156">
          <mxGeometry x="30" width="150" height="30" as="geometry">
            <mxRectangle width="150" height="30" as="alternateBounds" />
          </mxGeometry>
        </mxCell>
        <mxCell id="_4xQ4pWa8IgfTEqWYsLa-159" style="edgeStyle=orthogonalEdgeStyle;rounded=0;orthogonalLoop=1;jettySize=auto;html=1;entryX=0.556;entryY=0;entryDx=0;entryDy=0;entryPerimeter=0;movable=1;resizable=1;rotatable=1;deletable=1;editable=1;locked=0;connectable=1;" edge="1" parent="_4xQ4pWa8IgfTEqWYsLa-125" source="_4xQ4pWa8IgfTEqWYsLa-126" target="_4xQ4pWa8IgfTEqWYsLa-140">
          <mxGeometry relative="1" as="geometry" />
        </mxCell>
        <mxCell id="_4xQ4pWa8IgfTEqWYsLa-161" value="Equity" style="text;html=1;align=center;verticalAlign=middle;resizable=1;points=[];autosize=1;strokeColor=none;fillColor=none;movable=1;rotatable=1;deletable=1;editable=1;locked=0;connectable=1;fontStyle=1" vertex="1" parent="_4xQ4pWa8IgfTEqWYsLa-125">
          <mxGeometry x="25" width="60" height="30" as="geometry" />
        </mxCell>
        <mxCell id="_4xQ4pWa8IgfTEqWYsLa-172" value="" style="swimlane;startSize=0;movable=1;resizable=1;rotatable=1;deletable=1;editable=1;locked=0;connectable=1;" vertex="1" parent="1">
          <mxGeometry x="390" y="640" width="550" height="540" as="geometry">
            <mxRectangle x="30" y="60" width="50" height="40" as="alternateBounds" />
          </mxGeometry>
        </mxCell>
        <mxCell id="_4xQ4pWa8IgfTEqWYsLa-173" value="GroupTransaction" style="shape=table;startSize=30;container=1;collapsible=1;childLayout=tableLayout;fixedRows=1;rowLines=0;fontStyle=1;align=center;resizeLast=1;html=1;movable=1;resizable=1;rotatable=1;deletable=1;editable=1;locked=0;connectable=1;" vertex="1" parent="_4xQ4pWa8IgfTEqWYsLa-172">
          <mxGeometry x="60" y="60" width="170" height="90" as="geometry" />
        </mxCell>
        <mxCell id="_4xQ4pWa8IgfTEqWYsLa-174" value="" style="shape=tableRow;horizontal=0;startSize=0;swimlaneHead=0;swimlaneBody=0;fillColor=none;collapsible=0;dropTarget=0;points=[[0,0.5],[1,0.5]];portConstraint=eastwest;top=0;left=0;right=0;bottom=1;movable=1;resizable=1;rotatable=1;deletable=1;editable=1;locked=0;connectable=1;" vertex="1" parent="_4xQ4pWa8IgfTEqWYsLa-173">
          <mxGeometry y="30" width="170" height="30" as="geometry" />
        </mxCell>
        <mxCell id="_4xQ4pWa8IgfTEqWYsLa-175" value="PK" style="shape=partialRectangle;connectable=1;fillColor=none;top=0;left=0;bottom=0;right=0;fontStyle=1;overflow=hidden;whiteSpace=wrap;html=1;movable=1;resizable=1;rotatable=1;deletable=1;editable=1;locked=0;" vertex="1" parent="_4xQ4pWa8IgfTEqWYsLa-174">
          <mxGeometry width="30" height="30" as="geometry">
            <mxRectangle width="30" height="30" as="alternateBounds" />
          </mxGeometry>
        </mxCell>
        <mxCell id="_4xQ4pWa8IgfTEqWYsLa-176" value="GroupId" style="shape=partialRectangle;connectable=1;fillColor=none;top=0;left=0;bottom=0;right=0;align=left;spacingLeft=6;fontStyle=5;overflow=hidden;whiteSpace=wrap;html=1;movable=1;resizable=1;rotatable=1;deletable=1;editable=1;locked=0;" vertex="1" parent="_4xQ4pWa8IgfTEqWYsLa-174">
          <mxGeometry x="30" width="140" height="30" as="geometry">
            <mxRectangle width="140" height="30" as="alternateBounds" />
          </mxGeometry>
        </mxCell>
        <mxCell id="_4xQ4pWa8IgfTEqWYsLa-177" value="" style="shape=tableRow;horizontal=0;startSize=0;swimlaneHead=0;swimlaneBody=0;fillColor=none;collapsible=0;dropTarget=0;points=[[0,0.5],[1,0.5]];portConstraint=eastwest;top=0;left=0;right=0;bottom=0;movable=1;resizable=1;rotatable=1;deletable=1;editable=1;locked=0;connectable=1;" vertex="1" parent="_4xQ4pWa8IgfTEqWYsLa-173">
          <mxGeometry y="60" width="170" height="30" as="geometry" />
        </mxCell>
        <mxCell id="_4xQ4pWa8IgfTEqWYsLa-178" value="" style="shape=partialRectangle;connectable=1;fillColor=none;top=0;left=0;bottom=0;right=0;editable=1;overflow=hidden;whiteSpace=wrap;html=1;movable=1;resizable=1;rotatable=1;deletable=1;locked=0;" vertex="1" parent="_4xQ4pWa8IgfTEqWYsLa-177">
          <mxGeometry width="30" height="30" as="geometry">
            <mxRectangle width="30" height="30" as="alternateBounds" />
          </mxGeometry>
        </mxCell>
        <mxCell id="_4xQ4pWa8IgfTEqWYsLa-179" value="GroupName" style="shape=partialRectangle;connectable=1;fillColor=none;top=0;left=0;bottom=0;right=0;align=left;spacingLeft=6;overflow=hidden;whiteSpace=wrap;html=1;movable=1;resizable=1;rotatable=1;deletable=1;editable=1;locked=0;" vertex="1" parent="_4xQ4pWa8IgfTEqWYsLa-177">
          <mxGeometry x="30" width="140" height="30" as="geometry">
            <mxRectangle width="140" height="30" as="alternateBounds" />
          </mxGeometry>
        </mxCell>
        <mxCell id="_4xQ4pWa8IgfTEqWYsLa-180" value="TransactionType" style="shape=table;startSize=30;container=1;collapsible=1;childLayout=tableLayout;fixedRows=1;rowLines=0;fontStyle=1;align=center;resizeLast=1;html=1;movable=1;resizable=1;rotatable=1;deletable=1;editable=1;locked=0;connectable=1;" vertex="1" parent="_4xQ4pWa8IgfTEqWYsLa-172">
          <mxGeometry x="290" y="60" width="170" height="90" as="geometry" />
        </mxCell>
        <mxCell id="_4xQ4pWa8IgfTEqWYsLa-181" value="" style="shape=tableRow;horizontal=0;startSize=0;swimlaneHead=0;swimlaneBody=0;fillColor=none;collapsible=0;dropTarget=0;points=[[0,0.5],[1,0.5]];portConstraint=eastwest;top=0;left=0;right=0;bottom=1;movable=1;resizable=1;rotatable=1;deletable=1;editable=1;locked=0;connectable=1;" vertex="1" parent="_4xQ4pWa8IgfTEqWYsLa-180">
          <mxGeometry y="30" width="170" height="30" as="geometry" />
        </mxCell>
        <mxCell id="_4xQ4pWa8IgfTEqWYsLa-182" value="PK" style="shape=partialRectangle;connectable=1;fillColor=none;top=0;left=0;bottom=0;right=0;fontStyle=1;overflow=hidden;whiteSpace=wrap;html=1;movable=1;resizable=1;rotatable=1;deletable=1;editable=1;locked=0;" vertex="1" parent="_4xQ4pWa8IgfTEqWYsLa-181">
          <mxGeometry width="30" height="30" as="geometry">
            <mxRectangle width="30" height="30" as="alternateBounds" />
          </mxGeometry>
        </mxCell>
        <mxCell id="_4xQ4pWa8IgfTEqWYsLa-183" value="TypeId" style="shape=partialRectangle;connectable=1;fillColor=none;top=0;left=0;bottom=0;right=0;align=left;spacingLeft=6;fontStyle=5;overflow=hidden;whiteSpace=wrap;html=1;movable=1;resizable=1;rotatable=1;deletable=1;editable=1;locked=0;" vertex="1" parent="_4xQ4pWa8IgfTEqWYsLa-181">
          <mxGeometry x="30" width="140" height="30" as="geometry">
            <mxRectangle width="140" height="30" as="alternateBounds" />
          </mxGeometry>
        </mxCell>
        <mxCell id="_4xQ4pWa8IgfTEqWYsLa-184" value="" style="shape=tableRow;horizontal=0;startSize=0;swimlaneHead=0;swimlaneBody=0;fillColor=none;collapsible=0;dropTarget=0;points=[[0,0.5],[1,0.5]];portConstraint=eastwest;top=0;left=0;right=0;bottom=0;movable=1;resizable=1;rotatable=1;deletable=1;editable=1;locked=0;connectable=1;" vertex="1" parent="_4xQ4pWa8IgfTEqWYsLa-180">
          <mxGeometry y="60" width="170" height="30" as="geometry" />
        </mxCell>
        <mxCell id="_4xQ4pWa8IgfTEqWYsLa-185" value="" style="shape=partialRectangle;connectable=1;fillColor=none;top=0;left=0;bottom=0;right=0;editable=1;overflow=hidden;whiteSpace=wrap;html=1;movable=1;resizable=1;rotatable=1;deletable=1;locked=0;" vertex="1" parent="_4xQ4pWa8IgfTEqWYsLa-184">
          <mxGeometry width="30" height="30" as="geometry">
            <mxRectangle width="30" height="30" as="alternateBounds" />
          </mxGeometry>
        </mxCell>
        <mxCell id="_4xQ4pWa8IgfTEqWYsLa-186" value="Desccription" style="shape=partialRectangle;connectable=1;fillColor=none;top=0;left=0;bottom=0;right=0;align=left;spacingLeft=6;overflow=hidden;whiteSpace=wrap;html=1;movable=1;resizable=1;rotatable=1;deletable=1;editable=1;locked=0;" vertex="1" parent="_4xQ4pWa8IgfTEqWYsLa-184">
          <mxGeometry x="30" width="140" height="30" as="geometry">
            <mxRectangle width="140" height="30" as="alternateBounds" />
          </mxGeometry>
        </mxCell>
        <mxCell id="_4xQ4pWa8IgfTEqWYsLa-187" value="Ledger Detail" style="shape=table;startSize=30;container=1;collapsible=1;childLayout=tableLayout;fixedRows=1;rowLines=0;fontStyle=1;align=center;resizeLast=1;html=1;movable=1;resizable=1;rotatable=1;deletable=1;editable=1;locked=0;connectable=1;" vertex="1" parent="_4xQ4pWa8IgfTEqWYsLa-172">
          <mxGeometry x="100" y="240" width="180" height="210" as="geometry" />
        </mxCell>
        <mxCell id="_4xQ4pWa8IgfTEqWYsLa-188" value="" style="shape=tableRow;horizontal=0;startSize=0;swimlaneHead=0;swimlaneBody=0;fillColor=none;collapsible=0;dropTarget=0;points=[[0,0.5],[1,0.5]];portConstraint=eastwest;top=0;left=0;right=0;bottom=1;movable=1;resizable=1;rotatable=1;deletable=1;editable=1;locked=0;connectable=1;" vertex="1" parent="_4xQ4pWa8IgfTEqWYsLa-187">
          <mxGeometry y="30" width="180" height="30" as="geometry" />
        </mxCell>
        <mxCell id="_4xQ4pWa8IgfTEqWYsLa-189" value="PK" style="shape=partialRectangle;connectable=1;fillColor=none;top=0;left=0;bottom=0;right=0;fontStyle=1;overflow=hidden;whiteSpace=wrap;html=1;movable=1;resizable=1;rotatable=1;deletable=1;editable=1;locked=0;" vertex="1" parent="_4xQ4pWa8IgfTEqWYsLa-188">
          <mxGeometry width="30" height="30" as="geometry">
            <mxRectangle width="30" height="30" as="alternateBounds" />
          </mxGeometry>
        </mxCell>
        <mxCell id="_4xQ4pWa8IgfTEqWYsLa-190" value="AccountId" style="shape=partialRectangle;connectable=1;fillColor=none;top=0;left=0;bottom=0;right=0;align=left;spacingLeft=6;fontStyle=5;overflow=hidden;whiteSpace=wrap;html=1;movable=1;resizable=1;rotatable=1;deletable=1;editable=1;locked=0;" vertex="1" parent="_4xQ4pWa8IgfTEqWYsLa-188">
          <mxGeometry x="30" width="150" height="30" as="geometry">
            <mxRectangle width="150" height="30" as="alternateBounds" />
          </mxGeometry>
        </mxCell>
        <mxCell id="_4xQ4pWa8IgfTEqWYsLa-191" value="" style="shape=tableRow;horizontal=0;startSize=0;swimlaneHead=0;swimlaneBody=0;fillColor=none;collapsible=0;dropTarget=0;points=[[0,0.5],[1,0.5]];portConstraint=eastwest;top=0;left=0;right=0;bottom=0;movable=1;resizable=1;rotatable=1;deletable=1;editable=1;locked=0;connectable=1;" vertex="1" parent="_4xQ4pWa8IgfTEqWYsLa-187">
          <mxGeometry y="60" width="180" height="30" as="geometry" />
        </mxCell>
        <mxCell id="_4xQ4pWa8IgfTEqWYsLa-192" value="" style="shape=partialRectangle;connectable=1;fillColor=none;top=0;left=0;bottom=0;right=0;editable=1;overflow=hidden;whiteSpace=wrap;html=1;movable=1;resizable=1;rotatable=1;deletable=1;locked=0;" vertex="1" parent="_4xQ4pWa8IgfTEqWYsLa-191">
          <mxGeometry width="30" height="30" as="geometry">
            <mxRectangle width="30" height="30" as="alternateBounds" />
          </mxGeometry>
        </mxCell>
        <mxCell id="_4xQ4pWa8IgfTEqWYsLa-193" value="AccountName" style="shape=partialRectangle;connectable=1;fillColor=none;top=0;left=0;bottom=0;right=0;align=left;spacingLeft=6;overflow=hidden;whiteSpace=wrap;html=1;movable=1;resizable=1;rotatable=1;deletable=1;editable=1;locked=0;" vertex="1" parent="_4xQ4pWa8IgfTEqWYsLa-191">
          <mxGeometry x="30" width="150" height="30" as="geometry">
            <mxRectangle width="150" height="30" as="alternateBounds" />
          </mxGeometry>
        </mxCell>
        <mxCell id="_4xQ4pWa8IgfTEqWYsLa-194" value="" style="shape=tableRow;horizontal=0;startSize=0;swimlaneHead=0;swimlaneBody=0;fillColor=none;collapsible=0;dropTarget=0;points=[[0,0.5],[1,0.5]];portConstraint=eastwest;top=0;left=0;right=0;bottom=0;movable=1;resizable=1;rotatable=1;deletable=1;editable=1;locked=0;connectable=1;" vertex="1" parent="_4xQ4pWa8IgfTEqWYsLa-187">
          <mxGeometry y="90" width="180" height="30" as="geometry" />
        </mxCell>
        <mxCell id="_4xQ4pWa8IgfTEqWYsLa-195" value="" style="shape=partialRectangle;connectable=1;fillColor=none;top=0;left=0;bottom=0;right=0;editable=1;overflow=hidden;whiteSpace=wrap;html=1;movable=1;resizable=1;rotatable=1;deletable=1;locked=0;" vertex="1" parent="_4xQ4pWa8IgfTEqWYsLa-194">
          <mxGeometry width="30" height="30" as="geometry">
            <mxRectangle width="30" height="30" as="alternateBounds" />
          </mxGeometry>
        </mxCell>
        <mxCell id="_4xQ4pWa8IgfTEqWYsLa-196" value="Date" style="shape=partialRectangle;connectable=1;fillColor=none;top=0;left=0;bottom=0;right=0;align=left;spacingLeft=6;overflow=hidden;whiteSpace=wrap;html=1;movable=1;resizable=1;rotatable=1;deletable=1;editable=1;locked=0;" vertex="1" parent="_4xQ4pWa8IgfTEqWYsLa-194">
          <mxGeometry x="30" width="150" height="30" as="geometry">
            <mxRectangle width="150" height="30" as="alternateBounds" />
          </mxGeometry>
        </mxCell>
        <mxCell id="_4xQ4pWa8IgfTEqWYsLa-197" value="" style="shape=tableRow;horizontal=0;startSize=0;swimlaneHead=0;swimlaneBody=0;fillColor=none;collapsible=0;dropTarget=0;points=[[0,0.5],[1,0.5]];portConstraint=eastwest;top=0;left=0;right=0;bottom=0;movable=1;resizable=1;rotatable=1;deletable=1;editable=1;locked=0;connectable=1;" vertex="1" parent="_4xQ4pWa8IgfTEqWYsLa-187">
          <mxGeometry y="120" width="180" height="30" as="geometry" />
        </mxCell>
        <mxCell id="_4xQ4pWa8IgfTEqWYsLa-198" value="" style="shape=partialRectangle;connectable=1;fillColor=none;top=0;left=0;bottom=0;right=0;editable=1;overflow=hidden;whiteSpace=wrap;html=1;movable=1;resizable=1;rotatable=1;deletable=1;locked=0;" vertex="1" parent="_4xQ4pWa8IgfTEqWYsLa-197">
          <mxGeometry width="30" height="30" as="geometry">
            <mxRectangle width="30" height="30" as="alternateBounds" />
          </mxGeometry>
        </mxCell>
        <mxCell id="_4xQ4pWa8IgfTEqWYsLa-199" value="Amount" style="shape=partialRectangle;connectable=1;fillColor=none;top=0;left=0;bottom=0;right=0;align=left;spacingLeft=6;overflow=hidden;whiteSpace=wrap;html=1;movable=1;resizable=1;rotatable=1;deletable=1;editable=1;locked=0;" vertex="1" parent="_4xQ4pWa8IgfTEqWYsLa-197">
          <mxGeometry x="30" width="150" height="30" as="geometry">
            <mxRectangle width="150" height="30" as="alternateBounds" />
          </mxGeometry>
        </mxCell>
        <mxCell id="_4xQ4pWa8IgfTEqWYsLa-200" value="" style="shape=tableRow;horizontal=0;startSize=0;swimlaneHead=0;swimlaneBody=0;fillColor=none;collapsible=0;dropTarget=0;points=[[0,0.5],[1,0.5]];portConstraint=eastwest;top=0;left=0;right=0;bottom=0;movable=1;resizable=1;rotatable=1;deletable=1;editable=1;locked=0;connectable=1;" vertex="1" parent="_4xQ4pWa8IgfTEqWYsLa-187">
          <mxGeometry y="150" width="180" height="30" as="geometry" />
        </mxCell>
        <mxCell id="_4xQ4pWa8IgfTEqWYsLa-201" value="FK" style="shape=partialRectangle;connectable=1;fillColor=none;top=0;left=0;bottom=0;right=0;editable=1;overflow=hidden;whiteSpace=wrap;html=1;movable=1;resizable=1;rotatable=1;deletable=1;locked=0;" vertex="1" parent="_4xQ4pWa8IgfTEqWYsLa-200">
          <mxGeometry width="30" height="30" as="geometry">
            <mxRectangle width="30" height="30" as="alternateBounds" />
          </mxGeometry>
        </mxCell>
        <mxCell id="_4xQ4pWa8IgfTEqWYsLa-202" value="TypeId" style="shape=partialRectangle;connectable=1;fillColor=none;top=0;left=0;bottom=0;right=0;align=left;spacingLeft=6;overflow=hidden;whiteSpace=wrap;html=1;movable=1;resizable=1;rotatable=1;deletable=1;editable=1;locked=0;" vertex="1" parent="_4xQ4pWa8IgfTEqWYsLa-200">
          <mxGeometry x="30" width="150" height="30" as="geometry">
            <mxRectangle width="150" height="30" as="alternateBounds" />
          </mxGeometry>
        </mxCell>
        <mxCell id="_4xQ4pWa8IgfTEqWYsLa-203" value="" style="shape=tableRow;horizontal=0;startSize=0;swimlaneHead=0;swimlaneBody=0;fillColor=none;collapsible=0;dropTarget=0;points=[[0,0.5],[1,0.5]];portConstraint=eastwest;top=0;left=0;right=0;bottom=0;movable=1;resizable=1;rotatable=1;deletable=1;editable=1;locked=0;connectable=1;" vertex="1" parent="_4xQ4pWa8IgfTEqWYsLa-187">
          <mxGeometry y="180" width="180" height="30" as="geometry" />
        </mxCell>
        <mxCell id="_4xQ4pWa8IgfTEqWYsLa-204" value="FK" style="shape=partialRectangle;connectable=1;fillColor=none;top=0;left=0;bottom=0;right=0;editable=1;overflow=hidden;whiteSpace=wrap;html=1;movable=1;resizable=1;rotatable=1;deletable=1;locked=0;" vertex="1" parent="_4xQ4pWa8IgfTEqWYsLa-203">
          <mxGeometry width="30" height="30" as="geometry">
            <mxRectangle width="30" height="30" as="alternateBounds" />
          </mxGeometry>
        </mxCell>
        <mxCell id="_4xQ4pWa8IgfTEqWYsLa-205" value="GroupId" style="shape=partialRectangle;connectable=1;fillColor=none;top=0;left=0;bottom=0;right=0;align=left;spacingLeft=6;overflow=hidden;whiteSpace=wrap;html=1;movable=1;resizable=1;rotatable=1;deletable=1;editable=1;locked=0;" vertex="1" parent="_4xQ4pWa8IgfTEqWYsLa-203">
          <mxGeometry x="30" width="150" height="30" as="geometry">
            <mxRectangle width="150" height="30" as="alternateBounds" />
          </mxGeometry>
        </mxCell>
        <mxCell id="_4xQ4pWa8IgfTEqWYsLa-206" style="edgeStyle=orthogonalEdgeStyle;rounded=0;orthogonalLoop=1;jettySize=auto;html=1;entryX=0.556;entryY=0;entryDx=0;entryDy=0;entryPerimeter=0;movable=1;resizable=1;rotatable=1;deletable=1;editable=1;locked=0;connectable=1;" edge="1" parent="_4xQ4pWa8IgfTEqWYsLa-172" source="_4xQ4pWa8IgfTEqWYsLa-173" target="_4xQ4pWa8IgfTEqWYsLa-187">
          <mxGeometry relative="1" as="geometry" />
        </mxCell>
        <mxCell id="_4xQ4pWa8IgfTEqWYsLa-207" style="edgeStyle=orthogonalEdgeStyle;rounded=0;orthogonalLoop=1;jettySize=auto;html=1;entryX=0.55;entryY=-0.02;entryDx=0;entryDy=0;entryPerimeter=0;movable=1;resizable=1;rotatable=1;deletable=1;editable=1;locked=0;connectable=1;" edge="1" parent="_4xQ4pWa8IgfTEqWYsLa-172" source="_4xQ4pWa8IgfTEqWYsLa-180" target="_4xQ4pWa8IgfTEqWYsLa-187">
          <mxGeometry relative="1" as="geometry">
            <Array as="points">
              <mxPoint x="455" y="180" />
              <mxPoint x="230" y="180" />
              <mxPoint x="230" y="237" />
            </Array>
          </mxGeometry>
        </mxCell>
        <mxCell id="_4xQ4pWa8IgfTEqWYsLa-208" value="Profit &amp;amp; Loss" style="text;html=1;align=center;verticalAlign=middle;resizable=1;points=[];autosize=1;strokeColor=none;fillColor=none;movable=1;rotatable=1;deletable=1;editable=1;locked=0;connectable=1;fontStyle=1" vertex="1" parent="_4xQ4pWa8IgfTEqWYsLa-172">
          <mxGeometry x="5" width="100" height="30" as="geometry" />
        </mxCell>
      </root>
    </mxGraphModel>
  </diagram>
</mxfile>
